<?xml version="1.0" encoding="utf-8"?>
<!-- Generator: Adobe Illustrator 16.0.0, SVG Export Plug-In . SVG Version: 6.00 Build 0)  -->
<!DOCTYPE svg PUBLIC "-//W3C//DTD SVG 1.1//EN" "http://www.w3.org/Graphics/SVG/1.1/DTD/svg11.dtd">
<svg version="1.1" id="Layer_1" xmlns="http://www.w3.org/2000/svg" xmlns:xlink="http://www.w3.org/1999/xlink" x="0px" y="0px"
	 width="150px" height="221.667px" viewBox="0 0 150 221.667" enable-background="new 0 0 150 221.667" xml:space="preserve">
<g>
	<rect fill="#CDDC2A" width="150" height="221.667"/>
	<g>
		<path fill="#010101" d="M34.383,100.078c1.618,0.943,2.884,2.308,3.798,4.094c0.914,1.787,1.372,3.89,1.372,6.31
			c0,2.392-0.458,4.48-1.372,6.267c-0.915,1.787-2.188,3.158-3.819,4.114c-1.632,0.957-3.489,1.435-5.57,1.435
			c-2.363,0-4.361-0.604-5.993-1.814c-1.632-1.209-2.757-2.813-3.376-4.811v6.33h-2.954V90.773h2.954v14.517
			c0.619-1.997,1.744-3.601,3.376-4.811c1.631-1.209,3.629-1.814,5.993-1.814C30.901,98.665,32.765,99.136,34.383,100.078z
			 M23.58,102.42c-1.308,0.76-2.328,1.836-3.06,3.229c-0.732,1.393-1.097,3.003-1.097,4.832s0.365,3.438,1.097,4.831
			c0.731,1.393,1.751,2.469,3.06,3.229c1.309,0.76,2.778,1.14,4.41,1.14c2.616,0,4.698-0.823,6.246-2.469
			c1.547-1.646,2.321-3.889,2.321-6.73s-0.774-5.086-2.321-6.731c-1.547-1.646-3.629-2.469-6.246-2.469
			C26.358,101.281,24.888,101.661,23.58,102.42z"/>
		<path fill="#010101" d="M49.976,90.773v31.229h-2.997V90.773H49.976z"/>
		<path fill="#010101" d="M74.177,100.479c1.646,1.21,2.779,2.813,3.398,4.811v-6.33h2.91v23.042h-2.91v-6.33
			c-0.619,1.998-1.752,3.602-3.398,4.811c-1.646,1.21-3.636,1.814-5.971,1.814c-2.083,0-3.946-0.478-5.592-1.435
			c-1.646-0.956-2.926-2.327-3.84-4.114c-0.915-1.786-1.372-3.875-1.372-6.267c0-2.42,0.457-4.522,1.372-6.31
			c0.914-1.786,2.188-3.15,3.819-4.094c1.631-0.941,3.502-1.413,5.613-1.413C70.541,98.665,72.531,99.27,74.177,100.479z
			 M62.741,103.75c-1.561,1.646-2.342,3.89-2.342,6.731s0.781,5.085,2.342,6.73c1.562,1.646,3.636,2.469,6.225,2.469
			c1.631,0,3.102-0.38,4.41-1.14c1.309-0.76,2.334-1.836,3.081-3.229c0.744-1.393,1.119-3.002,1.119-4.831s-0.375-3.439-1.119-4.832
			c-0.746-1.393-1.771-2.469-3.081-3.229c-1.308-0.76-2.779-1.14-4.41-1.14C66.376,101.281,64.302,102.104,62.741,103.75z"/>
		<path fill="#010101" d="M106.46,100.986c1.927,1.547,3.102,3.602,3.523,6.161h-3.08c-0.311-1.829-1.168-3.271-2.574-4.326
			c-1.407-1.055-3.138-1.582-5.191-1.582c-1.491,0-2.862,0.338-4.114,1.013s-2.251,1.709-2.996,3.102
			c-0.746,1.393-1.118,3.102-1.118,5.128c0,2.025,0.372,3.734,1.118,5.127c0.745,1.393,1.744,2.427,2.996,3.102
			c1.252,0.676,2.623,1.013,4.114,1.013c2.054,0,3.784-0.527,5.191-1.582c1.406-1.056,2.264-2.497,2.574-4.326h3.08
			c-0.422,2.561-1.597,4.614-3.523,6.162c-1.928,1.547-4.354,2.32-7.279,2.32c-2.194,0-4.144-0.471-5.845-1.413
			c-1.703-0.942-3.032-2.307-3.988-4.094c-0.957-1.786-1.435-3.889-1.435-6.309s0.478-4.522,1.435-6.31
			c0.956-1.786,2.285-3.15,3.988-4.094c1.701-0.941,3.65-1.413,5.845-1.413C102.106,98.665,104.532,99.438,106.46,100.986z"/>
		<path fill="#010101" d="M129.732,122.001l-9.326-10.551v10.551h-2.996V90.773h2.996v18.314l9.158-10.128h3.671l-10.592,11.395
			l10.888,11.647H129.732z"/>
	</g>
	<g>
		<path fill="#FFFFFF" d="M40.5,147.46c2.122,1.338,3.69,3.16,4.706,5.467v-6.99h11.766v38.619H45.206v-6.99
			c-1.016,2.308-2.584,4.13-4.706,5.468c-2.123,1.339-4.661,2.007-7.613,2.007c-3.184,0-6.033-0.796-8.547-2.388
			c-2.516-1.592-4.499-3.887-5.952-6.887c-1.454-2.998-2.18-6.505-2.18-10.52c0-4.06,0.727-7.578,2.18-10.555
			c1.454-2.976,3.437-5.26,5.952-6.852c2.514-1.592,5.363-2.388,8.547-2.388C35.839,145.453,38.377,146.123,40.5,147.46z
			 M30.568,158.326c-1.546,1.661-2.318,3.969-2.318,6.921c0,2.953,0.772,5.26,2.318,6.921c1.545,1.661,3.587,2.491,6.125,2.491
			c2.492,0,4.533-0.853,6.125-2.561c1.592-1.706,2.388-3.99,2.388-6.852c0-2.906-0.796-5.201-2.388-6.886s-3.633-2.526-6.125-2.526
			C34.155,155.834,32.114,156.665,30.568,158.326z"/>
		<path fill="#FFFFFF" d="M100.192,149.952c2.605,2.953,3.91,7.014,3.91,12.181v22.424H92.267v-21.04
			c0-2.583-0.68-4.603-2.041-6.056s-3.172-2.18-5.434-2.18c-2.398,0-4.303,0.761-5.709,2.284c-1.408,1.522-2.111,3.691-2.111,6.505
			v20.486H65.138v-38.619h11.833v7.06c1.107-2.307,2.758-4.129,4.949-5.468c2.191-1.337,4.764-2.007,7.717-2.007
			C94.067,145.522,97.585,147,100.192,149.952z"/>
		<path fill="#FFFFFF" d="M133.792,174.382v10.174h-5.329c-4.522,0-8.04-1.118-10.554-3.356c-2.516-2.238-3.772-5.94-3.772-11.108
			v-14.188h-5.19v-9.967h5.19v-9.481h11.835v9.481h7.751v9.967h-7.751v14.396c0,1.522,0.312,2.584,0.935,3.184
			c0.622,0.6,1.672,0.899,3.148,0.899H133.792z"/>
	</g>
</g>
</svg>
