<?xml version="1.0" encoding="UTF-8"?>
<!DOCTYPE svg PUBLIC "-//W3C//DTD SVG 1.1//EN" "http://www.w3.org/Graphics/SVG/1.1/DTD/svg11.dtd">
<!-- Creator: CorelDRAW X7 -->
<svg xmlns="http://www.w3.org/2000/svg" xml:space="preserve" width="297mm" height="210mm" version="1.1" style="shape-rendering:geometricPrecision; text-rendering:geometricPrecision; image-rendering:optimizeQuality; fill-rule:evenodd; clip-rule:evenodd"
viewBox="0 0 29700 21000"
 xmlns:xlink="http://www.w3.org/1999/xlink">
 <defs>
  <style type="text/css">
   <![CDATA[
    .fil0 {fill:black}
   ]]>
  </style>
 </defs>
 <g id="Layer_x0020_1">
  <metadata id="CorelCorpID_0Corel-Layer"/>
  <path class="fil0" d="M19017 12576c0,574 467,1042 1042,1042 574,0 1041,-468 1041,-1042 0,-575 -467,-1042 -1041,-1042 -575,0 -1042,467 -1042,1042zm1042 -521c287,0 520,234 520,521 0,287 -233,521 -520,521 -288,0 -521,-234 -521,-521 0,-287 233,-521 521,-521zm4167 -1302l-1308 0 5 -3646c0,-718 -584,-1302 -1302,-1302l-110 0 0 -2494 -309 -256 -1861 354 -601 -1602 -331 -154 -11677 4152 -1258 0 -260 260 0 13022 260 260 16147 0c718,0 1302,-584 1302,-1302l-5 -3646 1308 0 260 -260 0 -3126 -260 -260zm-5884 -8524l480 1279 -8768 1668 8288 -2947zm2648 1396l0 2180 -11452 0 11452 -2180zm2975 10253l-1308 0 -3119 0c-431,0 -782,-350 -782,-781l0 -1042c0,-431 351,-781 782,-781l4427 0 0 2604z"/>
 </g>
</svg>
