<?xml version="1.0" encoding="UTF-8"?>
<!DOCTYPE svg PUBLIC "-//W3C//DTD SVG 1.1//EN" "http://www.w3.org/Graphics/SVG/1.1/DTD/svg11.dtd">
<!-- Creator: CorelDRAW X7 -->
<svg xmlns="http://www.w3.org/2000/svg" xml:space="preserve" width="297mm" height="210mm" version="1.1" style="shape-rendering:geometricPrecision; text-rendering:geometricPrecision; image-rendering:optimizeQuality; fill-rule:evenodd; clip-rule:evenodd"
viewBox="0 0 29700 21000"
 xmlns:xlink="http://www.w3.org/1999/xlink">
 <defs>
  <style type="text/css">
   <![CDATA[
    .fil0 {fill:#1C1B17}
   ]]>
  </style>
 </defs>
 <g id="Layer_x0020_1">
  <metadata id="CorelCorpID_0Corel-Layer"/>
  <g id="_621653168">
   <path class="fil0" d="M9334 9836l50 1719 5782 7255c353,473 455,779 631,780l2947 25 -6694 -8418c382,-311 4975,-246 5751,-4532l2080 -47 1131 -1738 -3229 -23c-94,-209 -491,-1480 -808,-1802l2998 -10c137,-328 801,-1393 1028,-1696l-11164 -3 -1107 1736c2335,-143 5675,-207 6369,1795l-5270 14 -1141 1765 6672 -12c-200,2959 -3701,3367 -6026,3192z"/>
  </g>
 </g>
</svg>
