<?xml version="1.0" encoding="UTF-8"?>
<!DOCTYPE svg PUBLIC "-//W3C//DTD SVG 1.1//EN" "http://www.w3.org/Graphics/SVG/1.1/DTD/svg11.dtd">
<!-- Creator: CorelDRAW X7 -->
<svg xmlns="http://www.w3.org/2000/svg" xml:space="preserve" width="210mm" height="297mm" version="1.1" style="shape-rendering:geometricPrecision; text-rendering:geometricPrecision; image-rendering:optimizeQuality; fill-rule:evenodd; clip-rule:evenodd"
viewBox="0 0 21000 29700"
 xmlns:xlink="http://www.w3.org/1999/xlink">
 <defs>
  <style type="text/css">
   <![CDATA[
    .fil0 {fill:black;fill-rule:nonzero}
   ]]>
  </style>
 </defs>
 <g id="Layer_x0020_1">
  <metadata id="CorelCorpID_0Corel-Layer"/>
  <path class="fil0" d="M12882 15393l-3028 2199c-3,3 -7,6 -11,8 -52,36 -108,64 -166,83 -65,21 -132,32 -198,32 -49,0 -99,-6 -148,-18 -46,-11 -93,-28 -139,-51 -8,-3 -15,-7 -22,-12 -99,-55 -179,-133 -236,-225 -60,-100 -94,-215 -94,-334l0 -4397c0,-120 34,-235 94,-334 61,-99 148,-181 254,-236l1 -1 0 0c107,-54 225,-76 340,-67 115,9 228,49 325,120l3028 2198c8,6 16,13 23,19 73,58 130,130 171,210 45,89 70,188 70,289 0,101 -25,200 -70,289 -45,90 -111,168 -194,228zm-3350 1755l3028 -2200c12,-8 21,-19 26,-30 7,-12 10,-26 10,-42 0,-16 -4,-30 -10,-42 -5,-10 -11,-18 -18,-25 -3,-2 -6,-4 -8,-6l-3028 -2198c-14,-10 -30,-16 -46,-17 -17,-2 -33,1 -48,9l0 -1c-15,8 -27,20 -35,34 -9,13 -13,30 -13,48l0 4397c0,18 4,34 13,48 7,12 17,23 29,30l3 1c6,4 14,6 23,8 7,2 14,3 21,3 10,0 20,-1 28,-4 7,-2 14,-5 20,-9 1,-2 3,-3 5,-4zm7936 -5810c-3,-25 -7,-47 -11,-67l-1 0c-4,-23 -10,-45 -16,-66l-1 -3 0 0c-3,-11 -6,-21 -9,-31 -1,-6 -4,-15 -9,-28 -2,-6 -4,-12 -5,-18 -80,-225 -227,-419 -419,-557 -177,-127 -392,-206 -625,-216l-49 0 0 -1 0 -10c-396,-57 -2761,-375 -5823,-389 -3060,14 -5426,332 -5822,388l0 11 0 1 -50 0c-233,10 -448,89 -625,216 -195,140 -345,339 -424,571l1 0c-2,4 -3,10 -10,33 -5,18 -8,27 -10,32 -7,26 -12,48 -16,67 -5,20 -8,42 -12,67 0,2 -1,5 -1,7 -54,383 -127,986 -181,1737 -39,534 -68,1134 -74,1768 7,770 48,1488 100,2097 51,608 111,1093 156,1415l0 0c4,25 8,47 12,68 4,18 9,41 17,68l1 5c6,20 6,21 7,25 18,58 -9,-30 12,35 1,4 2,8 3,11 80,226 228,420 419,558 189,136 422,216 675,216l0 11c396,57 2762,375 5822,389 3062,-14 5427,-332 5823,-389l0 -11c253,0 485,-80 674,-216 196,-141 346,-341 424,-574 2,-3 3,-7 4,-10 2,-6 4,-13 6,-20 2,-7 5,-16 8,-28l2 -6 -1 0c6,-21 12,-43 16,-65 5,-22 9,-45 12,-67 1,-2 1,-5 1,-7 45,-323 105,-805 155,-1408 52,-609 93,-1327 100,-2097 -7,-770 -48,-1488 -100,-2097 -51,-609 -111,-1094 -156,-1416l0 1zm525 -180c8,35 14,69 19,102l0 0 0 1c47,337 109,839 160,1447 51,607 93,1334 100,2140l0 0 0 4c-7,805 -49,1533 -100,2140 -51,602 -112,1101 -159,1438 0,3 -1,6 -1,10 -5,35 -11,69 -19,103 -7,33 -15,66 -24,100l-1 -1c-3,13 -7,28 -12,45 -3,9 -7,20 -11,32 -1,4 -2,9 -4,13 -115,343 -336,638 -623,844 -240,173 -526,285 -834,314 -8,2 -16,3 -23,4 -8,1 -2554,386 -5960,402l0 0 -2 0c-3271,-15 -5750,-371 -5947,-400 -13,-1 -26,-3 -39,-6 -307,-30 -591,-142 -830,-314 -282,-202 -499,-488 -617,-822 -3,-8 -7,-17 -9,-26 -13,-39 13,42 -12,-41l-8 -26c-3,-7 -5,-14 -7,-22 -8,-28 -15,-60 -23,-97 -8,-36 -14,-70 -19,-102l1 0 -1 -2c-47,-337 -109,-839 -160,-1446 -51,-607 -93,-1335 -100,-2140l0 0 0 -4c6,-664 35,-1273 74,-1805 55,-761 130,-1380 185,-1774 1,-3 1,-6 1,-9 5,-32 11,-66 19,-101 7,-37 15,-70 23,-99l1 0 1 -5c18,-63 -5,11 11,-42 1,-3 5,-15 15,-44l0 1 1 -3c115,-343 336,-637 624,-844 237,-170 520,-281 826,-311 10,-3 20,-5 30,-7 8,-1 2555,-385 5960,-401l0 0 2 0c3272,16 5750,371 5947,400 15,1 30,4 45,8 306,30 588,141 825,312 281,202 499,489 616,822 3,6 5,13 7,19 4,12 10,29 16,49 4,16 9,31 13,46l0 0c9,32 17,65 23,97l0 0 0 1zm-14433 44c1,-5 3,-9 0,0l0 0z"/>
 </g>
</svg>
