<?xml version="1.0" encoding="UTF-8"?>
<!DOCTYPE svg PUBLIC "-//W3C//DTD SVG 1.1//EN" "http://www.w3.org/Graphics/SVG/1.1/DTD/svg11.dtd">
<!-- Creator: CorelDRAW X7 -->
<svg xmlns="http://www.w3.org/2000/svg" xml:space="preserve" width="297mm" height="210mm" version="1.1" style="shape-rendering:geometricPrecision; text-rendering:geometricPrecision; image-rendering:optimizeQuality; fill-rule:evenodd; clip-rule:evenodd"
viewBox="0 0 29700 21000"
 xmlns:xlink="http://www.w3.org/1999/xlink">
 <defs>
  <style type="text/css">
   <![CDATA[
    .fil0 {fill:#1C1B17}
   ]]>
  </style>
 </defs>
 <g id="Layer_x0020_1">
  <metadata id="CorelCorpID_0Corel-Layer"/>
  <path class="fil0" d="M8941 11611c70,91 975,816 1035,845 292,-268 448,-719 996,-730 651,-13 658,491 601,1017 224,-140 560,-674 1079,-417 443,219 306,790 188,1211 129,-289 808,-1028 1299,-656 484,367 -3,1269 -138,1673 218,-120 683,-651 1041,-235 310,360 -71,868 -194,1169 245,283 998,655 1329,730 662,149 1206,-274 1044,-926 378,64 754,145 1038,-94 241,-202 368,-486 305,-908 501,98 842,210 1206,-123 254,-233 372,-749 194,-1142 467,251 871,188 1089,-263 372,-772 -735,-1282 -1452,-1844 -80,-63 -152,-112 -233,-168l-531 -363c-117,-85 -149,-112 -287,-183l-129 -99c-664,-477 -1423,-980 -2142,-1444 -659,-424 -1521,-1089 -2644,-805 -892,226 -1193,1321 -2444,1101 -502,-89 -849,-416 -738,-994 69,-358 617,-723 809,-969 -153,-200 -463,-283 -756,-326 -367,-53 -633,-170 -929,-209 -125,134 -275,239 -401,383 -103,117 -243,313 -347,451 -764,1018 -1218,2307 -1317,3652 949,139 759,262 1166,470 117,111 104,130 263,196zm5521 2826c-263,144 -474,437 -617,782 -142,343 -108,1031 408,758 529,-280 1173,-2066 209,-1540zm-3742 -2394c-815,302 -1028,1916 -33,1572 298,-103 568,-475 651,-843 109,-485 -99,-922 -618,-729zm1439 490c-778,245 -1465,2330 -407,2143 798,-141 1446,-2470 407,-2143zm1827 563c-601,-129 -932,371 -1156,765 -190,335 -626,1166 -187,1504 652,502 1728,-1518 1343,-2269zm6650 -7158c256,304 985,474 1650,2153 566,1428 355,2265 518,3255l2083 -984c41,-1212 -197,-2395 -655,-3364 -397,-840 -1214,-1855 -1850,-2216l-1746 1156zm-15828 4384c32,26 49,39 103,74l1996 1024c-30,-1182 214,-2183 645,-3166 209,-475 432,-861 695,-1243 155,-226 232,-345 394,-552 169,-216 324,-325 465,-575 -326,-96 -1378,-891 -1773,-1132 -719,262 -1488,1584 -1777,2261 -388,911 -712,2208 -748,3309zm15889 981c1085,-922 637,-382 1504,-732 75,-1113 -382,-2366 -1015,-3221 -149,-202 -528,-624 -738,-714 -312,128 -434,625 -1280,539 -455,-47 -2175,-798 -2666,-1022 -594,-269 -760,-344 -1482,-237 -1174,175 -1873,-148 -2449,286l-1481 1307c-95,90 -137,134 -230,217 -607,543 331,1528 1497,648 319,-242 671,-581 1105,-738 1044,-377 1993,168 2791,708 764,518 1469,978 2205,1477 178,121 353,235 538,359 520,349 1182,859 1701,1123z"/>
 </g>
</svg>
