<?xml version="1.0" encoding="UTF-8"?>
<!DOCTYPE svg PUBLIC "-//W3C//DTD SVG 1.1//EN" "http://www.w3.org/Graphics/SVG/1.1/DTD/svg11.dtd">
<!-- Creator: CorelDRAW X7 -->
<svg xmlns="http://www.w3.org/2000/svg" xml:space="preserve" width="210mm" height="297mm" version="1.1" style="shape-rendering:geometricPrecision; text-rendering:geometricPrecision; image-rendering:optimizeQuality; fill-rule:evenodd; clip-rule:evenodd"
viewBox="0 0 21000 29700"
 xmlns:xlink="http://www.w3.org/1999/xlink">
 <defs>
  <style type="text/css">
   <![CDATA[
    .fil0 {fill:black;fill-rule:nonzero}
   ]]>
  </style>
 </defs>
 <g id="Layer_x0020_1">
  <metadata id="CorelCorpID_0Corel-Layer"/>
  <path class="fil0" d="M13927 12296l-2237 0 -275 0 0 -275 0 -1667c0,-342 104,-582 256,-748 210,-229 497,-299 726,-299l1518 0 0 -2203 -2195 -9 0 1c-1065,0 -1778,327 -2246,795 -652,652 -844,1588 -844,2296l0 1834 0 275 -275 0 -1311 0 0 2285 1311 0 275 0 0 275 0 7748 2785 0 0 -7748 0 -275 275 0 2002 0 235 -2285zm-1962 -550l2266 0 304 0 -31 303 -291 2835 -26 247 -247 0 -1975 0 0 7748 0 275 -275 0 -3335 0 -275 0 0 -275 0 -7748 -1311 0 -275 0 0 -275 0 -2835 0 -275 275 0 1311 0 0 -1559c0,-819 229,-1908 1005,-2685 563,-562 1403,-956 2635,-956l1 1 2470 10 274 1 0 273 0 2751 0 275 -275 0 -1793 0c-108,0 -239,28 -322,119 -65,71 -110,189 -110,378l0 1392z"/>
 </g>
</svg>
