<?xml version="1.0" encoding="UTF-8"?>
<!DOCTYPE svg PUBLIC "-//W3C//DTD SVG 1.1//EN" "http://www.w3.org/Graphics/SVG/1.1/DTD/svg11.dtd">
<!-- Creator: CorelDRAW X7 -->
<svg xmlns="http://www.w3.org/2000/svg" xml:space="preserve" width="297mm" height="210mm" version="1.1" style="shape-rendering:geometricPrecision; text-rendering:geometricPrecision; image-rendering:optimizeQuality; fill-rule:evenodd; clip-rule:evenodd"
viewBox="0 0 29700 21000"
 xmlns:xlink="http://www.w3.org/1999/xlink">
 <defs>
  <style type="text/css">
   <![CDATA[
    .fil0 {fill:#2B2A29}
   ]]>
  </style>
 </defs>
 <g id="Layer_x0020_1">
  <metadata id="CorelCorpID_0Corel-Layer"/>
  <g id="_617791920">
   <g>
    <circle class="fil0" cx="14863" cy="14873" r="949"/>
    <path class="fil0" d="M14863 18986l-2074 0c0,-1146 929,-2074 2074,-2074 1146,0 2075,928 2075,2074l-2075 0z"/>
   </g>
   <g>
    <circle class="fil0" transform="matrix(0.104989 -0.104989 0.104989 0.104989 17951.4 13582.5)" r="6392"/>
    <path class="fil0" d="M20860 16491l-1467 1467c-810,-810 -810,-2124 0,-2934 810,-810 2124,-810 2934,0l-1467 1467z"/>
   </g>
   <g>
    <circle class="fil0" transform="matrix(3.93233E-015 -0.148476 0.148476 3.93233E-015 19222.7 10486.7)" r="6392"/>
    <path class="fil0" d="M23336 10487l0 2074c-1146,0 -2074,-929 -2074,-2074 0,-1146 928,-2075 2074,-2075l0 2075z"/>
   </g>
   <g>
    <circle class="fil0" transform="matrix(-0.104989 -0.104989 0.104989 -0.104989 17932.5 7398.62)" r="6392"/>
    <path class="fil0" d="M20841 4490l1467 1467c-810,810 -2124,810 -2934,0 -810,-810 -810,-2124 0,-2934l1467 1467z"/>
   </g>
   <g>
    <circle class="fil0" cx="14837" cy="6127" r="949"/>
    <path class="fil0" d="M14837 2014l2074 0c0,1146 -929,2074 -2074,2074 -1146,0 -2075,-928 -2075,-2074l2075 0z"/>
   </g>
   <g>
    <circle class="fil0" transform="matrix(-0.104989 0.104989 -0.104989 -0.104989 11748.6 7417.48)" r="6392"/>
    <path class="fil0" d="M8840 4509l1467 -1467c810,810 810,2124 0,2934 -810,810 -2124,810 -2934,0l1467 -1467z"/>
   </g>
   <g>
    <circle class="fil0" transform="matrix(-1.18959E-014 0.148476 -0.148476 -1.18959E-014 10477.3 10513.4)" r="6392"/>
    <path class="fil0" d="M6364 10513l0 -2074c1146,0 2074,929 2074,2074 0,1146 -928,2075 -2074,2075l0 -2075z"/>
   </g>
   <g>
    <circle class="fil0" transform="matrix(0.104989 0.104989 -0.104989 0.104989 11767.5 13601.4)" r="6392"/>
    <path class="fil0" d="M8859 16510l-1467 -1467c810,-810 2124,-810 2934,0 810,810 810,2124 0,2934l-1467 -1467z"/>
   </g>
  </g>
 </g>
</svg>
