<?xml version="1.0" encoding="UTF-8"?>
<!DOCTYPE svg PUBLIC "-//W3C//DTD SVG 1.1//EN" "http://www.w3.org/Graphics/SVG/1.1/DTD/svg11.dtd">
<!-- Creator: CorelDRAW X7 -->
<svg xmlns="http://www.w3.org/2000/svg" xml:space="preserve" width="297mm" height="210mm" version="1.1" style="shape-rendering:geometricPrecision; text-rendering:geometricPrecision; image-rendering:optimizeQuality; fill-rule:evenodd; clip-rule:evenodd"
viewBox="0 0 29700 21000"
 xmlns:xlink="http://www.w3.org/1999/xlink">
 <defs>
  <style type="text/css">
   <![CDATA[
    .fil0 {fill:black}
   ]]>
  </style>
 </defs>
 <g id="Layer_x0020_1">
  <metadata id="CorelCorpID_0Corel-Layer"/>
  <path class="fil0" d="M19942 13301l0 0 -3221 -3221c584,-991 898,-2128 898,-3290 0,-3573 -2907,-6480 -6479,-6480 -3573,0 -6480,2907 -6480,6480 0,3572 2907,6479 6480,6479 1162,0 2299,-314 3290,-898l5912 5912 868 869c158,157 366,236 573,236 208,0 415,-79 573,-237l1145 -1146c316,-315 316,-829 0,-1145l-3559 -3559zm-5396 -2454l0 0c-953,800 -2162,1241 -3406,1241 -2922,0 -5299,-2377 -5299,-5298 0,-2922 2377,-5299 5299,-5299 2921,0 5298,2377 5298,5299 0,1245 -441,2455 -1240,3406l0 0c-196,234 -416,453 -652,651z"/>
 </g>
</svg>
