<?xml version="1.0" encoding="UTF-8"?>
<!DOCTYPE svg PUBLIC "-//W3C//DTD SVG 1.1//EN" "http://www.w3.org/Graphics/SVG/1.1/DTD/svg11.dtd">
<!-- Creator: CorelDRAW X7 -->
<svg xmlns="http://www.w3.org/2000/svg" xml:space="preserve" width="210mm" height="297mm" version="1.1" style="shape-rendering:geometricPrecision; text-rendering:geometricPrecision; image-rendering:optimizeQuality; fill-rule:evenodd; clip-rule:evenodd"
viewBox="0 0 21000 29700"
 xmlns:xlink="http://www.w3.org/1999/xlink">
 <defs>
  <style type="text/css">
   <![CDATA[
    .fil0 {fill:black;fill-rule:nonzero}
   ]]>
  </style>
 </defs>
 <g id="Layer_x0020_1">
  <metadata id="CorelCorpID_0Corel-Layer"/>
  <path class="fil0" d="M17800 10059c-28,9 -56,17 -84,25 -329,98 -670,169 -1023,214l-1203 154 1021 -657c317,-204 597,-468 826,-776 80,-107 153,-220 219,-337 -111,53 -225,103 -340,151 -367,151 -749,271 -1142,359l-161 36 -107 -124c-281,-325 -624,-587 -1006,-766 -367,-172 -773,-267 -1200,-267 -834,0 -1590,365 -2138,955 -553,595 -894,1419 -894,2332 0,133 6,261 19,382 12,124 32,247 58,368l74 350 -357 -19c-1389,-72 -2704,-462 -3881,-1104 -1087,-592 -2056,-1399 -2860,-2366 -51,131 -94,267 -129,407 -68,273 -104,563 -104,864 0,563 131,1095 361,1559 238,478 581,884 994,1176l756 535 -925 -37c-294,-12 -579,-59 -851,-140 -116,-34 -228,-74 -338,-119 72,632 310,1207 665,1675 436,574 1049,985 1747,1139l1051 231 -1032 301c-151,44 -304,76 -460,97 -165,22 -328,32 -491,32 -67,0 -135,-1 -205,-5 215,489 539,911 936,1229 489,392 1092,627 1743,636l732 11 -558 473c-600,508 -1278,910 -2011,1182 -636,236 -1312,375 -2016,402 466,249 956,456 1463,617 811,257 1670,395 2560,395 2713,0 4861,-1112 6388,-2757 1804,-1942 2750,-4624 2750,-7102 0,-101 -1,-175 -2,-221 -1,-68 -4,-141 -8,-222l-7 -141 111 -87c313,-247 604,-521 868,-817 65,-73 129,-147 191,-223zm-176 -520c280,-86 553,-193 819,-321l852 -412 -500 804c-228,367 -489,714 -777,1037 -258,289 -535,555 -828,795 1,30 2,62 3,94 3,106 4,184 4,234 0,2606 -997,5429 -2898,7476 -1625,1750 -3908,2933 -6790,2933 -947,0 -1861,-147 -2725,-421 -893,-283 -1733,-702 -2502,-1235l-930 -645 1122 148c117,15 240,27 367,35 122,8 251,11 387,11 729,0 1430,-130 2082,-372 469,-174 913,-405 1325,-687 -509,-116 -977,-349 -1380,-672 -593,-474 -1043,-1141 -1271,-1913l-135 -455 461 110c94,23 182,37 269,45 11,1 22,2 34,3 -383,-237 -722,-546 -999,-911 -502,-661 -803,-1502 -803,-2415l0 -49 0 -487 417 252c155,93 317,171 486,232 -176,-216 -330,-454 -457,-709 -268,-538 -419,-1154 -419,-1804 0,-343 42,-677 121,-995 82,-329 203,-639 358,-925l202 -375 258 339c807,1064 1817,1944 2966,2570 1010,550 2126,904 3306,1013 -3,-24 -6,-48 -8,-71 -15,-149 -23,-295 -23,-438 0,-1056 398,-2012 1042,-2706 649,-699 1547,-1131 2540,-1131 506,0 991,114 1432,320 403,189 768,454 1076,780 309,-78 609,-176 899,-295 334,-138 656,-304 964,-499l621 -394 -210 704c-133,443 -340,851 -604,1208 -50,67 -101,132 -154,194z"/>
 </g>
</svg>
