<?xml version="1.0" encoding="utf-8"?>
<!-- Generator: Adobe Illustrator 16.0.0, SVG Export Plug-In . SVG Version: 6.00 Build 0)  -->
<!DOCTYPE svg PUBLIC "-//W3C//DTD SVG 1.1//EN" "http://www.w3.org/Graphics/SVG/1.1/DTD/svg11.dtd">
<svg version="1.1" id="Layer_1" xmlns="http://www.w3.org/2000/svg" xmlns:xlink="http://www.w3.org/1999/xlink" x="0px" y="0px"
	 width="200px" height="200px" viewBox="0 0 200 200" enable-background="new 0 0 200 200" xml:space="preserve">
<path display="none" fill="none" stroke="#000000" stroke-width="11.9838" stroke-linecap="round" stroke-linejoin="round" stroke-miterlimit="10" d="
	M139.788,89.016c0-27.435-22.238-49.674-49.672-49.674s-49.674,22.24-49.674,49.674c0,27.433,22.24,49.672,49.674,49.672
	c13.717,0,26.135-5.559,35.125-14.549l35.039,35.039"/>
<g display="none">
	
		<polyline display="inline" fill="none" stroke="#000000" stroke-width="11.9838" stroke-linecap="round" stroke-linejoin="round" stroke-miterlimit="10" points="
		160.345,39.563 142.042,159.105 58.538,159.105 40.801,39.563 	"/>
	
		<line display="inline" fill="none" stroke="#000000" stroke-width="11.9838" stroke-linecap="round" stroke-linejoin="round" stroke-miterlimit="10" x1="55.879" y1="141.184" x2="143.927" y2="141.184"/>
</g>
<g display="none">
	
		<path display="inline" fill="none" stroke="#000000" stroke-width="11.9838" stroke-linecap="round" stroke-linejoin="round" stroke-miterlimit="10" d="
		M108.649,56.235c12.56,3.559,21.763,15.111,21.763,28.821v74.155"/>
	
		<path display="inline" fill="none" stroke="#000000" stroke-width="11.9838" stroke-linecap="round" stroke-linejoin="round" stroke-miterlimit="10" d="
		M130.412,178.554v9.743H70.504v-59.296V85.056c0-13.709,9.203-25.262,21.763-28.821"/>
	
		<polyline display="inline" fill="none" stroke="#000000" stroke-width="11.9838" stroke-linecap="round" stroke-linejoin="round" stroke-miterlimit="10" points="
		92.267,56.235 92.267,11.104 108.649,11.104 108.649,56.235 	"/>
</g>
<g display="none">
	
		<polyline display="inline" fill="none" stroke="#000000" stroke-width="11.9838" stroke-linecap="round" stroke-linejoin="round" stroke-miterlimit="10" points="
		159.88,159.831 159.88,100.059 99.961,40.14 40.042,100.06 40.042,159.979 99.961,159.979 99.961,100.06 129.85,100.06 
		129.85,159.979 	"/>
</g>
<g>
	
		<polyline fill="none" stroke="#000000" stroke-width="11.9838" stroke-linecap="round" stroke-linejoin="round" stroke-miterlimit="10" points="
		107.114,104.367 152.542,58.939 32.926,58.939 92.771,118.785 92.771,148.744 92.771,178.703 73.596,178.703 	"/>
	
		<line fill="none" stroke="#000000" stroke-width="11.9838" stroke-linecap="round" stroke-linejoin="round" stroke-miterlimit="10" x1="144.201" y1="42.638" x2="167.471" y2="19.369"/>
</g>
<g display="none">
	
		<rect x="40.042" y="27.358" display="inline" fill="none" stroke="#000000" stroke-width="11.9838" stroke-linecap="round" stroke-linejoin="round" stroke-miterlimit="10" width="119.838" height="144.555"/>
	
		<line display="inline" fill="none" stroke="#000000" stroke-width="11.9838" stroke-linecap="round" stroke-linejoin="round" stroke-miterlimit="10" x1="78.189" y1="63.309" x2="121.731" y2="63.309"/>
	
		<line display="inline" fill="none" stroke="#000000" stroke-width="11.9838" stroke-linecap="round" stroke-linejoin="round" stroke-miterlimit="10" x1="78.189" y1="98.063" x2="121.731" y2="98.063"/>
	
		<line display="inline" fill="none" stroke="#000000" stroke-width="11.9838" stroke-linecap="round" stroke-linejoin="round" stroke-miterlimit="10" x1="78.189" y1="128.022" x2="121.731" y2="128.022"/>
</g>
<path display="none" fill="none" stroke="#000000" stroke-width="11.9838" stroke-linecap="round" stroke-linejoin="round" stroke-miterlimit="10" d="
	M139.788,89.016c0-27.435-22.238-49.674-49.672-49.674s-49.674,22.24-49.674,49.674c0,27.433,22.24,49.672,49.674,49.672
	c13.717,0,26.135-5.559,35.125-14.549l35.039,35.039"/>
</svg>
