<svg xmlns="http://www.w3.org/2000/svg" width="16.034" height="10.932" viewBox="0 0 16.034 10.932"><defs><style>.a{fill:#c1c1c1;}</style></defs><g transform="translate(0 0)"><path class="a" d="M172.853,170.667a2.186,2.186,0,1,0,2.186,2.186A2.188,2.188,0,0,0,172.853,170.667Z" transform="translate(-164.836 -167.387)"/><path class="a" d="M8.017,74.667A8.62,8.62,0,0,0,0,80.133a8.612,8.612,0,0,0,16.034,0A8.616,8.616,0,0,0,8.017,74.667Zm0,9.11a3.644,3.644,0,1,1,3.644-3.644A3.645,3.645,0,0,1,8.017,83.777Z" transform="translate(0 -74.667)"/></g></svg>