<?xml version="1.0" encoding="utf-8"?>
<!-- Generator: Adobe Illustrator 16.0.0, SVG Export Plug-In . SVG Version: 6.00 Build 0)  -->
<!DOCTYPE svg PUBLIC "-//W3C//DTD SVG 1.1//EN" "http://www.w3.org/Graphics/SVG/1.1/DTD/svg11.dtd">
<svg version="1.1" id="Layer_1" xmlns="http://www.w3.org/2000/svg" xmlns:xlink="http://www.w3.org/1999/xlink" x="0px" y="0px"
	 width="200px" height="200px" viewBox="0 0 200 200" enable-background="new 0 0 200 200" xml:space="preserve">
<path display="none" fill="none" stroke="#000000" stroke-width="11.9838" stroke-linecap="round" stroke-linejoin="round" stroke-miterlimit="10" d="
	M139.788,89.016c0-27.435-22.238-49.674-49.672-49.674c-27.434,0-49.674,22.24-49.674,49.674c0,27.433,22.24,49.671,49.674,49.671
	c13.717,0,26.135-5.559,35.125-14.549l35.038,35.039"/>
<g display="none">
	
		<polyline display="inline" fill="none" stroke="#000000" stroke-width="11.9838" stroke-linecap="round" stroke-linejoin="round" stroke-miterlimit="10" points="
		160.346,39.563 142.042,159.105 58.538,159.105 40.801,39.563 	"/>
	
		<line display="inline" fill="none" stroke="#000000" stroke-width="11.9838" stroke-linecap="round" stroke-linejoin="round" stroke-miterlimit="10" x1="55.879" y1="141.184" x2="143.927" y2="141.184"/>
</g>
<g display="none">
	
		<path display="inline" fill="none" stroke="#000000" stroke-width="11.9838" stroke-linecap="round" stroke-linejoin="round" stroke-miterlimit="10" d="
		M108.648,56.235c12.561,3.559,21.764,15.111,21.764,28.821v74.155"/>
	
		<path display="inline" fill="none" stroke="#000000" stroke-width="11.9838" stroke-linecap="round" stroke-linejoin="round" stroke-miterlimit="10" d="
		M130.412,178.555v9.742H70.504v-59.296V85.056c0-13.709,9.203-25.262,21.763-28.821"/>
	
		<polyline display="inline" fill="none" stroke="#000000" stroke-width="11.9838" stroke-linecap="round" stroke-linejoin="round" stroke-miterlimit="10" points="
		92.267,56.235 92.267,11.104 108.648,11.104 108.648,56.235 	"/>
</g>
<g display="none">
	
		<polyline display="inline" fill="none" stroke="#000000" stroke-width="11.9838" stroke-linecap="round" stroke-linejoin="round" stroke-miterlimit="10" points="
		159.88,159.831 159.88,100.059 99.961,40.14 40.042,100.06 40.042,159.979 99.961,159.979 99.961,100.06 129.85,100.06 
		129.85,159.979 	"/>
</g>
<g display="none">
	
		<polyline display="inline" fill="none" stroke="#000000" stroke-width="11.9838" stroke-linecap="round" stroke-linejoin="round" stroke-miterlimit="10" points="
		107.113,104.367 152.542,58.939 32.926,58.939 92.771,118.785 92.771,148.744 92.771,178.703 73.596,178.703 	"/>
	
		<line display="inline" fill="none" stroke="#000000" stroke-width="11.9838" stroke-linecap="round" stroke-linejoin="round" stroke-miterlimit="10" x1="144.201" y1="42.638" x2="167.471" y2="19.369"/>
</g>
<path display="none" fill="none" stroke="#000000" stroke-width="11.9838" stroke-linecap="round" stroke-linejoin="round" stroke-miterlimit="10" d="
	M139.788,89.016c0-27.435-22.238-49.674-49.672-49.674c-27.434,0-49.674,22.24-49.674,49.674c0,27.433,22.24,49.671,49.674,49.671
	c13.717,0,26.135-5.559,35.125-14.549l35.038,35.039"/>
<g transform="translate(-2 -1)">
	<path fill="none" stroke="#000000" stroke-width="12" stroke-miterlimit="10" d="M35.34,78.5L102,26.008L168.66,78.5v82.495
		c0.049,8.227-6.584,14.949-14.81,14.997l0,0H50.154c-8.231-0.048-14.862-6.771-14.814-14.997l0,0V78.5z"/>
</g>
</svg>
