<?xml version="1.0" encoding="utf-8"?>
<!-- Generator: Adobe Illustrator 16.0.0, SVG Export Plug-In . SVG Version: 6.00 Build 0)  -->
<!DOCTYPE svg PUBLIC "-//W3C//DTD SVG 1.1//EN" "http://www.w3.org/Graphics/SVG/1.1/DTD/svg11.dtd">
<svg version="1.1" id="Layer_1" xmlns="http://www.w3.org/2000/svg" xmlns:xlink="http://www.w3.org/1999/xlink" x="0px" y="0px"
	 width="150px" height="45px" viewBox="0 0 150 45" enable-background="new 0 0 150 45" xml:space="preserve">
<g>
	<g>
		<path d="M50.946,10.338v4.257c-0.56-0.605-1.087-1.045-1.581-1.318c-0.554-0.268-1.127-0.4-1.72-0.4
			c-1.112,0-2.02,0.381-2.723,1.143c-0.241,0.272-0.436,0.559-0.586,0.854c-0.149,0.296-0.263,0.632-0.336,1.006
			c-0.076,0.374-0.113,0.754-0.113,1.137c0,1.146,0.352,2.099,1.055,2.86c0.709,0.75,1.61,1.124,2.703,1.124
			c0.587,0,1.159-0.142,1.72-0.421c0.494-0.254,1.021-0.689,1.581-1.308v4.266c-0.723,0.339-1.338,0.565-1.846,0.674
			c-0.631,0.151-1.249,0.225-1.854,0.225c-0.768,0-1.49-0.094-2.168-0.277c-0.676-0.186-1.28-0.468-1.814-0.844
			c-1.064-0.73-1.876-1.629-2.434-2.696c-0.559-1.105-0.839-2.333-0.839-3.68c0-1.081,0.183-2.073,0.546-2.978
			c0.164-0.437,0.37-0.848,0.621-1.235c0.249-0.387,0.573-0.789,0.969-1.206c0.685-0.702,1.451-1.224,2.303-1.562
			c0.846-0.345,1.785-0.518,2.819-0.518c0.591,0,1.209,0.071,1.853,0.215C49.739,9.824,50.354,10.052,50.946,10.338z"/>
		<path d="M67.814,16.956c0,1.036-0.187,2.002-0.557,2.899c-0.37,0.88-0.924,1.68-1.659,2.402c-0.728,0.701-1.56,1.243-2.497,1.62
			c-0.981,0.384-1.954,0.576-2.917,0.576c-0.975,0-1.947-0.192-2.917-0.576c-0.955-0.383-1.781-0.923-2.478-1.62
			c-0.702-0.67-1.255-1.479-1.657-2.422c-0.391-0.923-0.587-1.883-0.587-2.88c0-0.995,0.196-1.955,0.587-2.88
			c0.402-0.943,0.955-1.75,1.657-2.42c0.715-0.716,1.541-1.264,2.478-1.641c0.912-0.371,1.884-0.557,2.917-0.557
			c1.034,0,2.014,0.188,2.938,0.562c0.923,0.375,1.747,0.92,2.473,1.636c0.725,0.716,1.279,1.522,1.663,2.42
			C67.628,14.975,67.814,15.935,67.814,16.956z M60.181,21.154c1.073,0,1.972-0.4,2.693-1.2c0.358-0.398,0.622-0.843,0.791-1.337
			c0.169-0.495,0.254-1.048,0.254-1.661c0-1.19-0.354-2.189-1.064-2.996c-0.722-0.801-1.613-1.201-2.674-1.201
			c-1.087,0-1.982,0.4-2.686,1.201c-0.702,0.801-1.054,1.799-1.054,2.996c0,1.244,0.345,2.249,1.034,3.017
			C58.186,20.76,59.087,21.154,60.181,21.154z"/>
		<path d="M70.352,24.074V9.781h3.935v14.293H70.352z"/>
		<path d="M77.43,24.074V9.781h3.759l5.399,7.352c0.136,0.202,0.309,0.503,0.518,0.908c0.265,0.52,0.525,1.058,0.781,1.61
			c-0.098-0.748-0.153-1.272-0.166-1.571c-0.041-0.469-0.061-0.883-0.061-1.24V9.781h3.739v14.293H87.66l-5.397-7.382
			c-0.079-0.104-0.252-0.408-0.517-0.917c-0.235-0.417-0.496-0.943-0.78-1.581c0.064,0.508,0.126,1.034,0.185,1.581
			c0.026,0.612,0.038,1.024,0.038,1.239v7.06H77.43z"/>
		<path d="M94.466,24.074V9.781h3.895v10.954h4.844v3.339H94.466z"/>
		<path d="M119.778,16.956c0,1.036-0.184,2.002-0.555,2.899c-0.372,0.88-0.925,1.68-1.659,2.402
			c-0.729,0.701-1.562,1.243-2.498,1.62c-0.98,0.384-1.954,0.576-2.917,0.576c-0.976,0-1.946-0.192-2.917-0.576
			c-0.957-0.383-1.781-0.923-2.477-1.62c-0.703-0.67-1.255-1.479-1.659-2.422c-0.39-0.923-0.586-1.883-0.586-2.88
			c0-0.995,0.196-1.955,0.586-2.88c0.404-0.943,0.956-1.75,1.659-2.42c0.715-0.716,1.54-1.264,2.477-1.641
			c0.912-0.371,1.883-0.557,2.917-0.557c1.033,0,2.015,0.188,2.937,0.562c0.924,0.375,1.749,0.92,2.474,1.636
			c0.726,0.716,1.279,1.522,1.664,2.42C119.595,14.975,119.778,15.935,119.778,16.956z M112.145,21.154c1.076,0,1.973-0.4,2.695-1.2
			c0.358-0.398,0.621-0.843,0.791-1.337c0.168-0.495,0.253-1.048,0.253-1.661c0-1.19-0.354-2.189-1.063-2.996
			c-0.722-0.801-1.614-1.201-2.676-1.201c-1.085,0-1.979,0.4-2.684,1.201c-0.703,0.801-1.056,1.799-1.056,2.996
			c0,1.244,0.346,2.249,1.036,3.017C110.15,20.76,111.052,21.154,112.145,21.154z"/>
		<path d="M132.578,10.338v4.257c-0.56-0.605-1.088-1.045-1.581-1.318c-0.555-0.268-1.127-0.4-1.721-0.4
			c-1.112,0-2.02,0.381-2.723,1.143c-0.24,0.272-0.436,0.559-0.585,0.854c-0.149,0.296-0.263,0.632-0.337,1.006
			c-0.075,0.374-0.114,0.754-0.114,1.137c0,1.146,0.354,2.099,1.056,2.86c0.709,0.75,1.61,1.124,2.703,1.124
			c0.587,0,1.158-0.142,1.721-0.421c0.493-0.254,1.021-0.689,1.581-1.308v4.266c-0.723,0.339-1.339,0.565-1.847,0.674
			c-0.63,0.151-1.248,0.225-1.854,0.225c-0.766,0-1.488-0.094-2.167-0.277c-0.677-0.186-1.279-0.468-1.815-0.844
			c-1.063-0.73-1.875-1.629-2.433-2.696c-0.559-1.105-0.839-2.333-0.839-3.68c0-1.081,0.183-2.073,0.547-2.978
			c0.163-0.437,0.37-0.848,0.621-1.235c0.248-0.387,0.571-0.789,0.968-1.206c0.684-0.702,1.45-1.224,2.304-1.562
			c0.844-0.345,1.783-0.518,2.817-0.518c0.591,0,1.21,0.071,1.854,0.215C131.371,9.824,131.984,10.052,132.578,10.338z"/>
		<path d="M134.772,24.074V9.781h3.856v6.493l4.52-6.493h4.54l-5.281,6.97l5.741,7.323h-4.863l-4.656-6.414v6.414H134.772z"/>
	</g>
	<g>
		<path fill="#666666" d="M88.76,34.202h-1.095v-4.775h1.029v0.78c0.22-0.333,0.465-0.574,0.742-0.727
			c0.277-0.154,0.604-0.229,0.98-0.229c0.372,0,0.682,0.078,0.927,0.233c0.246,0.156,0.434,0.394,0.56,0.713
			c0.253-0.328,0.521-0.569,0.803-0.72c0.284-0.151,0.608-0.227,0.972-0.227c0.315,0,0.59,0.057,0.826,0.173
			c0.233,0.116,0.416,0.285,0.548,0.506c0.061,0.104,0.104,0.229,0.134,0.373c0.029,0.146,0.043,0.353,0.043,0.619v0.385v2.896
			h-1.094V31.75c0-0.643-0.068-1.063-0.202-1.268c-0.137-0.205-0.38-0.304-0.73-0.304c-0.428,0-0.734,0.135-0.919,0.408
			c-0.183,0.274-0.272,0.754-0.272,1.44v2.175h-1.104V31.75c0-0.592-0.07-1.003-0.214-1.229c-0.145-0.229-0.39-0.342-0.738-0.342
			c-0.216,0-0.413,0.048-0.59,0.146c-0.179,0.098-0.319,0.23-0.424,0.401c-0.066,0.111-0.114,0.248-0.142,0.408
			c-0.026,0.161-0.039,0.46-0.039,0.894V34.202z"/>
		<path fill="#666666" d="M101.189,34.202h-1.095v-0.618c-0.194,0.274-0.421,0.479-0.682,0.613c-0.26,0.137-0.559,0.201-0.895,0.201
			c-0.674,0-1.207-0.23-1.595-0.692c-0.389-0.461-0.583-1.093-0.583-1.896c0-0.765,0.199-1.38,0.596-1.847
			c0.397-0.469,0.912-0.703,1.553-0.703c0.389,0,0.722,0.081,0.999,0.243c0.278,0.163,0.48,0.399,0.606,0.703v-0.78h1.095V34.202z
			 M100.127,31.801c0-0.494-0.117-0.879-0.346-1.156c-0.231-0.274-0.553-0.413-0.966-0.413c-0.414,0-0.738,0.144-0.974,0.426
			c-0.238,0.284-0.354,0.679-0.354,1.183c0,0.508,0.111,0.897,0.34,1.175c0.229,0.275,0.553,0.411,0.969,0.411
			c0.392,0,0.712-0.148,0.959-0.447C100.003,32.679,100.127,32.287,100.127,31.801z"/>
		<path fill="#666666" d="M102.958,34.202v-3.818h-0.837v-0.957h0.837v-1.809h1.092v1.809h0.837v0.957h-0.837v3.818H102.958z"/>
		<path fill="#666666" d="M109.396,30.787c-0.168-0.186-0.362-0.327-0.586-0.425c-0.225-0.097-0.466-0.146-0.723-0.146
			c-0.448,0-0.805,0.146-1.073,0.434c-0.27,0.289-0.404,0.673-0.404,1.15c0,0.496,0.135,0.885,0.406,1.171
			c0.271,0.284,0.643,0.425,1.119,0.425c0.266,0,0.504-0.049,0.711-0.148c0.209-0.1,0.393-0.251,0.55-0.449v1.258
			c-0.202,0.113-0.416,0.198-0.646,0.257c-0.232,0.057-0.476,0.085-0.732,0.085c-0.75,0-1.36-0.237-1.832-0.715
			c-0.472-0.477-0.709-1.095-0.709-1.854c0-0.77,0.244-1.389,0.732-1.861c0.489-0.472,1.13-0.708,1.918-0.708
			c0.248,0,0.477,0.023,0.686,0.072c0.207,0.05,0.403,0.124,0.584,0.225V30.787z"/>
		<path fill="#666666" d="M110.515,34.202v-7.81h1.026v3.814c0.219-0.329,0.478-0.569,0.771-0.72
			c0.297-0.151,0.654-0.227,1.077-0.227c0.358,0,0.66,0.056,0.91,0.168c0.251,0.111,0.445,0.28,0.587,0.501
			c0.085,0.132,0.146,0.285,0.182,0.46c0.037,0.176,0.057,0.479,0.057,0.917v2.896h-1.105V31.75c0-0.628-0.075-1.046-0.229-1.253
			c-0.152-0.207-0.423-0.31-0.812-0.31c-0.256,0-0.484,0.047-0.684,0.141c-0.2,0.096-0.358,0.227-0.472,0.397
			c-0.081,0.114-0.137,0.263-0.169,0.442c-0.031,0.181-0.049,0.465-0.049,0.859v2.175H110.515z"/>
		<path fill="#666666" d="M121.18,31.977h-3.818c0.025,0.446,0.16,0.795,0.398,1.045c0.238,0.251,0.554,0.375,0.951,0.375
			c0.353,0,0.646-0.072,0.884-0.222c0.232-0.147,0.439-0.387,0.612-0.715l0.922,0.514c-0.268,0.481-0.601,0.839-0.998,1.072
			c-0.396,0.236-0.86,0.353-1.393,0.353c-0.767,0-1.377-0.233-1.83-0.7c-0.452-0.468-0.681-1.09-0.681-1.868
			c0-0.75,0.235-1.365,0.702-1.848c0.47-0.48,1.07-0.722,1.809-0.722c0.769,0,1.367,0.22,1.797,0.659
			c0.431,0.44,0.645,1.056,0.645,1.85V31.977z M120.046,31.24c-0.043-0.342-0.175-0.603-0.392-0.782
			c-0.218-0.181-0.519-0.271-0.896-0.271c-0.361,0-0.647,0.088-0.867,0.263c-0.218,0.173-0.372,0.438-0.459,0.79H120.046z"/>
		<path fill="#666666" d="M122.319,34.202v-4.775h1.029v0.78c0.218-0.329,0.474-0.569,0.771-0.72
			c0.295-0.151,0.654-0.227,1.077-0.227c0.355,0,0.659,0.056,0.911,0.168c0.25,0.111,0.444,0.28,0.585,0.501
			c0.083,0.132,0.144,0.285,0.18,0.46c0.04,0.176,0.058,0.479,0.058,0.917v2.896h-1.104V31.75c0-0.628-0.077-1.046-0.229-1.253
			c-0.152-0.207-0.425-0.31-0.814-0.31c-0.256,0-0.481,0.047-0.684,0.141c-0.2,0.096-0.355,0.227-0.47,0.397
			c-0.08,0.114-0.136,0.263-0.17,0.442c-0.032,0.181-0.047,0.465-0.047,0.859v2.175H122.319z"/>
		<path fill="#666666" d="M132.879,33.905c0,0.935-0.184,1.591-0.56,1.973c-0.371,0.382-0.999,0.572-1.883,0.572
			c-0.658,0-1.184-0.139-1.576-0.416c-0.394-0.277-0.594-0.646-0.601-1.104l1.175-0.006c0.018,0.205,0.111,0.36,0.288,0.468
			c0.172,0.106,0.417,0.16,0.734,0.16c0.466,0,0.803-0.102,1.007-0.306c0.204-0.205,0.309-0.549,0.313-1.027l0.01-0.635
			c-0.194,0.274-0.423,0.479-0.684,0.613c-0.26,0.137-0.557,0.201-0.894,0.201c-0.675,0-1.206-0.23-1.596-0.692
			c-0.386-0.461-0.581-1.093-0.581-1.896c0-0.765,0.197-1.38,0.594-1.847c0.397-0.469,0.915-0.703,1.553-0.703
			c0.389,0,0.722,0.081,0.999,0.243c0.278,0.163,0.479,0.399,0.608,0.703v-0.78h1.092V33.905z M131.816,31.801
			c0-0.494-0.114-0.879-0.345-1.156c-0.229-0.274-0.551-0.413-0.965-0.413c-0.413,0-0.739,0.144-0.975,0.426
			c-0.236,0.284-0.355,0.679-0.355,1.183c0,0.508,0.114,0.897,0.343,1.175c0.229,0.275,0.55,0.411,0.966,0.411
			c0.395,0,0.713-0.148,0.961-0.447C131.692,32.679,131.816,32.287,131.816,31.801z"/>
		<path fill="#666666" d="M134.295,27.36c0-0.185,0.068-0.343,0.205-0.479c0.137-0.135,0.297-0.2,0.486-0.2
			c0.194,0,0.355,0.063,0.487,0.192c0.128,0.129,0.191,0.292,0.191,0.486s-0.065,0.358-0.194,0.491
			c-0.132,0.135-0.294,0.2-0.484,0.2c-0.189,0-0.35-0.068-0.486-0.205C134.363,27.711,134.295,27.548,134.295,27.36z
			 M134.441,34.202v-4.775h1.092v4.775H134.441z"/>
		<path fill="#666666" d="M137.096,34.202v-4.775h1.029v0.78c0.219-0.329,0.475-0.569,0.771-0.72
			c0.294-0.151,0.653-0.227,1.078-0.227c0.354,0,0.658,0.056,0.909,0.168c0.25,0.111,0.445,0.28,0.586,0.501
			c0.083,0.132,0.144,0.285,0.181,0.46c0.039,0.176,0.056,0.479,0.056,0.917v2.896h-1.102V31.75c0-0.628-0.078-1.046-0.229-1.253
			c-0.153-0.207-0.427-0.31-0.815-0.31c-0.256,0-0.482,0.047-0.684,0.141c-0.2,0.096-0.355,0.227-0.47,0.397
			c-0.081,0.114-0.137,0.263-0.171,0.442c-0.031,0.181-0.046,0.465-0.046,0.859v2.175H137.096z"/>
		<path fill="#666666" d="M147.764,31.977h-3.819c0.026,0.446,0.158,0.795,0.396,1.045c0.238,0.251,0.558,0.375,0.953,0.375
			c0.353,0,0.647-0.072,0.882-0.222c0.235-0.147,0.439-0.387,0.615-0.715l0.922,0.514c-0.271,0.481-0.602,0.839-0.997,1.072
			c-0.397,0.236-0.862,0.353-1.396,0.353c-0.767,0-1.375-0.233-1.83-0.7c-0.452-0.468-0.679-1.09-0.679-1.868
			c0-0.75,0.233-1.365,0.703-1.848c0.467-0.48,1.07-0.722,1.806-0.722c0.769,0,1.369,0.22,1.8,0.659
			c0.428,0.44,0.645,1.056,0.645,1.85V31.977z M146.63,31.24c-0.044-0.342-0.175-0.603-0.395-0.782
			c-0.218-0.181-0.515-0.271-0.895-0.271c-0.36,0-0.649,0.088-0.869,0.263c-0.216,0.173-0.369,0.438-0.457,0.79H146.63z"/>
	</g>
	<linearGradient id="SVGID_1_" gradientUnits="userSpaceOnUse" x1="25.3584" y1="19.4873" x2="25.3584" y2="19.5002">
		<stop  offset="0" style="stop-color:#001194"/>
		<stop  offset="1" style="stop-color:#00A5B5"/>
	</linearGradient>
	<path fill="url(#SVGID_1_)" d="M25.366,19.483v0.009c-0.005,0-0.007,0.003-0.016,0.008L25.366,19.483z"/>
	<linearGradient id="SVGID_2_" gradientUnits="userSpaceOnUse" x1="25.3584" y1="19.4922" x2="25.3631" y2="19.497">
		<stop  offset="0" style="stop-color:#001194"/>
		<stop  offset="1" style="stop-color:#00A5B5"/>
	</linearGradient>
	<path fill="url(#SVGID_2_)" d="M25.366,19.483v0.009c-0.005,0-0.007,0.003-0.016,0.008L25.366,19.483z"/>
	<linearGradient id="SVGID_3_" gradientUnits="userSpaceOnUse" x1="18.8799" y1="4.999" x2="5.0453" y2="18.8336">
		<stop  offset="0" style="stop-color:#001194"/>
		<stop  offset="1" style="stop-color:#00A5B5"/>
	</linearGradient>
	<path fill="url(#SVGID_3_)" d="M15.352,2.5v12.488L8.48,22.376L3.684,17.4l-0.297-0.304C3.051,16.68,2.851,16.136,2.851,15.5
		c0-0.597,0.188-1.147,0.525-1.58c0.004-0.004,0.007-0.009,0.007-0.012l0.32-0.329c0.005-0.003,0.005-0.008,0.009-0.008l9.483-9.835
		L13.999,2.9l0.005-0.004C14.392,2.645,14.855,2.5,15.352,2.5z"/>
	<linearGradient id="SVGID_4_" gradientUnits="userSpaceOnUse" x1="20.3555" y1="31.167" x2="20.3555" y2="13.034">
		<stop  offset="0" style="stop-color:#001194"/>
		<stop  offset="1" style="stop-color:#00A5B5"/>
	</linearGradient>
	<path fill="url(#SVGID_4_)" d="M25.384,12.72v0.052c0,0.133-0.013,0.261-0.033,0.385l-0.009,6.327L25.326,19.5
		c-0.004,0-0.008,0.008-0.012,0.013c-0.18,0.131-0.34,0.292-0.473,0.472l-7.999,7.999c-0.419,0.324-0.949,0.517-1.516,0.517v-26
		c0.566,0,1.097,0.193,1.516,0.517l0.473,0.472c0-0.004-0.005-0.013-0.013-0.017l7.088,7.072c0.009,0.008,0.021,0.017,0.028,0.028
		c0.005,0.003,0.012,0.012,0.021,0.02l0.274,0.276c0.018,0.012,0.029,0.028,0.042,0.039l0.055,0.058c0,0,0,0.003,0.005,0.003
		c0.286,0.381,0.472,0.841,0.535,1.349C25.371,12.448,25.384,12.584,25.384,12.72z"/>
	<linearGradient id="SVGID_5_" gradientUnits="userSpaceOnUse" x1="1.8516" y1="27.5693" x2="29.3496" y2="27.5693">
		<stop  offset="0" style="stop-color:#001194"/>
		<stop  offset="1" style="stop-color:#00A5B5"/>
	</linearGradient>
	<path fill="url(#SVGID_5_)" d="M29.35,21.5v6.247c0,0.762-0.247,1.451-0.717,1.944c-0.062,0.066-0.127,0.124-0.189,0.18
		l-3.093,2.985l-3.328,3.207l-3.521,3.396l-0.803,0.776c-0.568,0.413-1.248,0.682-1.984,0.746c-0.12,0.013-0.239,0.018-0.363,0.018
		c-0.884,0-1.7-0.287-2.359-0.771l-0.78-0.751l-9.224-8.886l-0.006-0.002l-0.658-0.632l-0.006-0.005
		C2.184,29.765,2.075,29.56,2,29.342c-0.096-0.266-0.148-0.545-0.148-0.842c0,0,0-10,0-10.5c0-1.611,0.988-3.276,1.372-3.86
		C2.982,14.532,2.851,15,2.851,15.5c0,0.636,0.2,1.18,0.536,1.597c0.09,0.112,0.188,0.215,0.297,0.304l4.797,4.976l4.715,4.888
		l0.804,0.837l0.005,0.002c0.388,0.253,0.852,0.397,1.348,0.397c0.567,0,1.096-0.192,1.516-0.517
		c0.18-0.132,0.339-0.292,0.472-0.472l8.001-7.999c0.002-0.005,0.009-0.013,0.011-0.013c0.009-0.005,0.011-0.008,0.016-0.008
		c0.418-0.313,0.928-0.491,1.485-0.491C28.231,19.001,29.35,20.121,29.35,21.5z"/>
	<linearGradient id="SVGID_6_" gradientUnits="userSpaceOnUse" x1="15.6104" y1="37.6777" x2="35.7461" y2="37.6777">
		<stop  offset="0" style="stop-color:#001194"/>
		<stop  offset="1" style="stop-color:#00A5B5"/>
	</linearGradient>
	<path fill="url(#SVGID_6_)" d="M35.851,35.501c0,0.543-0.177,1.052-0.477,1.462l-0.555,0.558l-3.97,3.976L30.846,41.5l-0.483,0.487
		c-0.42,0.323-0.944,0.513-1.512,0.513h-9.999c-0.885,0-1.701-0.289-2.36-0.773c-0.064-0.047-0.128-0.096-0.188-0.146
		c-0.216-0.179-0.412-0.378-0.588-0.6c0.736-0.064,1.416-0.333,1.984-0.746c0.305-0.219,0.575-0.479,0.803-0.776l3.521-3.396
		l3.328-3.207V33h8C34.73,33,35.851,34.119,35.851,35.501z"/>
</g>
</svg>
