<?xml version="1.0" encoding="utf-8"?>
<!-- Generator: Adobe Illustrator 16.0.0, SVG Export Plug-In . SVG Version: 6.00 Build 0)  -->
<!DOCTYPE svg PUBLIC "-//W3C//DTD SVG 1.1//EN" "http://www.w3.org/Graphics/SVG/1.1/DTD/svg11.dtd">
<svg version="1.1" id="Layer_1" xmlns="http://www.w3.org/2000/svg" xmlns:xlink="http://www.w3.org/1999/xlink" x="0px" y="0px"
	 width="37px" height="45px" viewBox="0 0 37 45" enable-background="new 0 0 37 45" xml:space="preserve">
<g>
	
		<linearGradient id="SVGID_1_" gradientUnits="userSpaceOnUse" x1="-218.6411" y1="120.5127" x2="-218.6411" y2="120.4998" gradientTransform="matrix(1 0 0 -1 244 140)">
		<stop  offset="0" style="stop-color:#001194"/>
		<stop  offset="1" style="stop-color:#00A5B5"/>
	</linearGradient>
	<path fill="url(#SVGID_1_)" d="M25.366,19.483v0.009c-0.005,0-0.007,0.003-0.016,0.008L25.366,19.483z"/>
	
		<linearGradient id="SVGID_2_" gradientUnits="userSpaceOnUse" x1="-218.6411" y1="120.5078" x2="-218.6371" y2="120.5037" gradientTransform="matrix(1 0 0 -1 244 140)">
		<stop  offset="0" style="stop-color:#001194"/>
		<stop  offset="1" style="stop-color:#00A5B5"/>
	</linearGradient>
	<path fill="url(#SVGID_2_)" d="M25.366,19.483v0.009c-0.005,0-0.007,0.003-0.016,0.008L25.366,19.483z"/>
	
		<linearGradient id="SVGID_3_" gradientUnits="userSpaceOnUse" x1="-225.1206" y1="135.002" x2="-238.9552" y2="121.1674" gradientTransform="matrix(1 0 0 -1 244 140)">
		<stop  offset="0" style="stop-color:#001194"/>
		<stop  offset="1" style="stop-color:#00A5B5"/>
	</linearGradient>
	<path fill="url(#SVGID_3_)" d="M15.352,2.5v12.488L8.48,22.376L3.684,17.4l-0.297-0.304c-0.336-0.416-0.536-0.96-0.536-1.596
		c0-0.597,0.188-1.147,0.525-1.58c0.004-0.004,0.007-0.009,0.007-0.012l0.32-0.329c0.005-0.003,0.005-0.008,0.009-0.008l9.483-9.835
		L13.999,2.9l0.005-0.004C14.392,2.645,14.855,2.5,15.352,2.5z"/>
	
		<linearGradient id="SVGID_4_" gradientUnits="userSpaceOnUse" x1="-223.6455" y1="108.834" x2="-223.6455" y2="126.9663" gradientTransform="matrix(1 0 0 -1 244 140)">
		<stop  offset="0" style="stop-color:#001194"/>
		<stop  offset="1" style="stop-color:#00A5B5"/>
	</linearGradient>
	<path fill="url(#SVGID_4_)" d="M25.384,12.72v0.052c0,0.133-0.013,0.261-0.033,0.385l-0.009,6.327L25.326,19.5
		c-0.004,0-0.008,0.008-0.012,0.013c-0.18,0.131-0.34,0.292-0.473,0.472l-7.999,8c-0.419,0.324-0.949,0.517-1.516,0.517v-26
		c0.566,0,1.097,0.193,1.516,0.517l0.473,0.472c0-0.004-0.005-0.013-0.013-0.017l7.088,7.072c0.009,0.008,0.021,0.017,0.028,0.028
		c0.005,0.003,0.012,0.012,0.021,0.02l0.274,0.276c0.018,0.012,0.029,0.028,0.042,0.039l0.055,0.058c0,0,0,0.003,0.005,0.003
		c0.286,0.381,0.472,0.841,0.535,1.349C25.371,12.448,25.384,12.584,25.384,12.72z"/>
	
		<linearGradient id="SVGID_5_" gradientUnits="userSpaceOnUse" x1="-242.1479" y1="112.4297" x2="-214.6499" y2="112.4297" gradientTransform="matrix(1 0 0 -1 244 140)">
		<stop  offset="0" style="stop-color:#001194"/>
		<stop  offset="1" style="stop-color:#00A5B5"/>
	</linearGradient>
	<path fill="url(#SVGID_5_)" d="M29.35,21.5v6.247c0,0.762-0.247,1.451-0.717,1.944c-0.062,0.065-0.127,0.123-0.189,0.18
		l-3.093,2.984l-3.328,3.207l-3.521,3.396l-0.803,0.775c-0.568,0.414-1.248,0.683-1.984,0.746c-0.12,0.014-0.239,0.019-0.363,0.019
		c-0.884,0-1.7-0.287-2.359-0.771l-0.78-0.752l-9.224-8.886l-0.006-0.002l-0.658-0.632l-0.006-0.005
		C2.184,29.766,2.075,29.561,2,29.342c-0.096-0.266-0.148-0.545-0.148-0.842c0,0,0-10,0-10.5c0-1.611,0.988-3.276,1.372-3.86
		C2.982,14.532,2.851,15,2.851,15.5c0,0.636,0.2,1.18,0.536,1.597c0.09,0.112,0.188,0.215,0.297,0.304l4.797,4.976l4.715,4.889
		L14,28.102l0.005,0.002c0.388,0.254,0.852,0.397,1.348,0.397c0.567,0,1.096-0.192,1.516-0.517c0.18-0.133,0.339-0.293,0.472-0.473
		l8.001-7.999c0.002-0.005,0.009-0.013,0.011-0.013c0.009-0.005,0.011-0.008,0.016-0.008c0.418-0.313,0.928-0.491,1.485-0.491
		C28.231,19.001,29.35,20.121,29.35,21.5z"/>
	
		<linearGradient id="SVGID_6_" gradientUnits="userSpaceOnUse" x1="-228.3896" y1="102.3223" x2="-208.2544" y2="102.3223" gradientTransform="matrix(1 0 0 -1 244 140)">
		<stop  offset="0" style="stop-color:#001194"/>
		<stop  offset="1" style="stop-color:#00A5B5"/>
	</linearGradient>
	<path fill="url(#SVGID_6_)" d="M35.851,35.501c0,0.543-0.177,1.052-0.477,1.462l-0.555,0.559l-3.97,3.976L30.846,41.5l-0.483,0.486
		c-0.42,0.324-0.944,0.514-1.512,0.514h-9.999c-0.885,0-1.701-0.289-2.36-0.773c-0.064-0.047-0.128-0.096-0.188-0.146
		c-0.216-0.179-0.412-0.378-0.588-0.601c0.736-0.063,1.416-0.332,1.984-0.746c0.305-0.219,0.575-0.479,0.803-0.775l3.521-3.396
		l3.328-3.207V33h8C34.73,33,35.851,34.119,35.851,35.501z"/>
</g>
</svg>
