<?xml version="1.0" encoding="utf-8"?>
<!-- Generator: Adobe Illustrator 16.0.0, SVG Export Plug-In . SVG Version: 6.00 Build 0)  -->
<!DOCTYPE svg PUBLIC "-//W3C//DTD SVG 1.1//EN" "http://www.w3.org/Graphics/SVG/1.1/DTD/svg11.dtd">
<svg version="1.1" id="Layer_1" xmlns="http://www.w3.org/2000/svg" xmlns:xlink="http://www.w3.org/1999/xlink" x="0px" y="0px"
	 width="200px" height="200px" viewBox="0 0 200 200" enable-background="new 0 0 200 200" xml:space="preserve">
<g>
	<g>
		<path d="M124.995,179.93h-49.99c-3.313,0-6-2.687-6-6V87.78c0-12.231,7.273-23.254,18.16-28.22V26.07c0-3.313,2.687-6,6-6h13.67
			c3.313,0,6,2.687,6,6v33.49c10.886,4.966,18.16,15.989,18.16,28.22v61.88c0,3.313-2.687,6-6,6s-6-2.687-6-6V87.78
			c0-8.459-5.673-15.976-13.796-18.277c-2.582-0.732-4.364-3.089-4.364-5.773V32.07h-1.67v31.66c0,2.684-1.782,5.041-4.364,5.773
			c-8.123,2.301-13.796,9.817-13.796,18.277v80.149h37.99v-2.129c0-3.313,2.687-6,6-6s6,2.687,6,6v8.129
			C130.995,177.243,128.309,179.93,124.995,179.93z"/>
	</g>
</g>
</svg>
