<?xml version="1.0" encoding="UTF-8"?>
<!DOCTYPE svg PUBLIC "-//W3C//DTD SVG 1.1//EN" "http://www.w3.org/Graphics/SVG/1.1/DTD/svg11.dtd">
<!-- Creator: CorelDRAW X7 -->
<svg xmlns="http://www.w3.org/2000/svg" xml:space="preserve" width="210mm" height="297mm" version="1.1" style="shape-rendering:geometricPrecision; text-rendering:geometricPrecision; image-rendering:optimizeQuality; fill-rule:evenodd; clip-rule:evenodd"
viewBox="0 0 21000 29700"
 xmlns:xlink="http://www.w3.org/1999/xlink">
 <defs>
  <style type="text/css">
   <![CDATA[
    .str0 {stroke:black;stroke-width:550}
    .fil0 {fill:none}
   ]]>
  </style>
 </defs>
 <g id="Layer_x0020_1">
  <metadata id="CorelCorpID_0Corel-Layer"/>
  <path class="fil0 str0" d="M10500 10447c2432,0 4403,1971 4403,4403 0,2432 -1971,4403 -4403,4403 -2432,0 -4403,-1971 -4403,-4403 0,-2432 1971,-4403 4403,-4403zm-8815 -687c262,-453 842,-609 1296,-347 454,262 610,843 348,1297 -262,454 -843,609 -1297,347 -454,-262 -609,-843 -347,-1297zm4384 2532l-1037 1796c-992,-573 -1332,-1841 -760,-2834 573,-992 1842,-1332 2834,-759l-1037 1797zm-4384 7648c-262,-454 -107,-1035 347,-1297 454,-262 1035,-107 1297,347 262,454 106,1035 -348,1297 -454,262 -1034,106 -1296,-347zm4384 -2532l1037 1797c-992,573 -2261,233 -2834,-759 -572,-993 -232,-2261 760,-2834l1037 1796zm4431 7621c-524,0 -949,-425 -949,-949 0,-524 425,-949 949,-949 524,0 949,425 949,949 0,524 -425,949 -949,949zm0 -5062l2074 0c0,1145 -928,2074 -2074,2074 -1146,0 -2074,-929 -2074,-2074l2074 0zm8815 -27c-262,453 -842,609 -1296,347 -454,-262 -610,-843 -348,-1297 262,-454 843,-609 1297,-347 454,262 609,843 347,1297zm-4384 -2532l1037 -1796c992,573 1332,1841 760,2834 -573,992 -1842,1332 -2834,759l1037 -1797zm4384 -7648c262,454 107,1035 -347,1297 -454,262 -1034,107 -1297,-347 -262,-454 -106,-1035 348,-1297 454,-262 1034,-106 1296,347zm-4384 2532l-1037 -1797c992,-573 2261,-233 2834,759 572,993 232,2261 -760,2834l-1037 -1796zm-4431 -7621c524,0 949,425 949,949 0,524 -425,949 -949,949 -524,0 -949,-425 -949,-949 0,-524 425,-949 949,-949zm0 5062l-2074 0c0,-1145 928,-2074 2074,-2074 1146,0 2074,929 2074,2074l-2074 0z"/>
 </g>
</svg>
