<?xml version="1.0" encoding="iso-8859-1"?>
<!-- Generator: Adobe Illustrator 19.1.0, SVG Export Plug-In . SVG Version: 6.00 Build 0)  -->
<svg version="1.1" id="Capa_1" xmlns="http://www.w3.org/2000/svg" xmlns:xlink="http://www.w3.org/1999/xlink" x="0px" y="0px"
	 viewBox="0 0 537.795 537.795" style="enable-background:new 0 0 537.795 537.795;" xml:space="preserve">
<g>
	<g>
		<path d="M391.375,340.638c-8.09-8.09-21.24-8.09-29.33,0l-65.021-65.014c22.526-28.997,34.854-64.875,34.854-101.748
			c0-91.495-74.444-165.939-165.939-165.939S0,82.383,0,173.877s74.444,165.939,165.94,165.938
			c36.852,0,72.736-12.335,101.741-34.861l65.027,65.021c-8.09,8.09-8.09,21.247,0,29.337L457.19,523.801
			c4.045,4.038,9.355,6.057,14.665,6.057c5.317,0,10.627-2.019,14.665-6.071l29.337-29.337c8.09-8.09,8.09-21.24,0-29.33
			L391.375,340.638z M263.733,290.373h-0.007c-27.339,22.969-62.062,35.615-97.787,35.615c-83.875,0-152.111-68.236-152.111-152.111
			S82.064,21.766,165.939,21.766c83.876,0,152.111,68.242,152.112,152.11c0,35.747-12.646,70.483-35.601,97.794v0.007
			C276.821,278.377,270.523,284.669,263.733,290.373z M278.273,295.994c3.402-3.132,6.672-6.396,9.791-9.77l64.205,64.198
			l-9.784,9.777L278.273,295.994z M506.081,484.681l-29.337,29.337c-2.704,2.69-7.074,2.69-9.777,0L342.485,389.536
			c-2.697-2.704-2.697-7.081,0-9.784l4.888-4.888l24.448-24.442c2.704-2.703,7.074-2.703,9.777,0l124.483,124.482
			C508.778,477.601,508.778,481.984,506.081,484.681z"/>
		<path d="M166.001,49.422c-68.622,0-124.454,55.833-124.454,124.455s55.831,124.454,124.454,124.454
			s124.454-55.833,124.454-124.455S234.623,49.422,166.001,49.422z M166.001,284.502c-60.996,0-110.626-49.63-110.626-110.626
			S105.005,63.25,166.001,63.25c60.997,0,110.626,49.63,110.626,110.626S226.997,284.502,166.001,284.502z"/>
		<polygon points="468.972,83.765 468.972,20.238 455.144,20.238 455.144,83.765 385.684,83.765 385.684,97.593 455.144,97.593 
			455.144,158.52 468.972,158.52 468.972,97.593 537.795,97.593 537.795,83.765 		"/>
	</g>
</g>
<g>
</g>
<g>
</g>
<g>
</g>
<g>
</g>
<g>
</g>
<g>
</g>
<g>
</g>
<g>
</g>
<g>
</g>
<g>
</g>
<g>
</g>
<g>
</g>
<g>
</g>
<g>
</g>
<g>
</g>
</svg>
