<svg xmlns="http://www.w3.org/2000/svg" width="46" height="62" viewBox="0 0 46 62"><defs><style>.a,.b{fill:#f46e27;}.a{opacity:0.22;}</style></defs><g transform="translate(-9 -1)"><path class="a" d="M49.286,45H55V16a3,3,0,0,0-3-3H46.77a2.982,2.982,0,0,0-2.919,2.338,6,6,0,0,1-11.7,0A2.98,2.98,0,0,0,29.23,13H24a3,3,0,0,0-3,3V45.025A1.336,1.336,0,0,1,21.143,45h5.714a1.009,1.009,0,1,1,0,2H21.143A1.335,1.335,0,0,1,21,46.975V60a3,3,0,0,0,3,3h5.23a2.982,2.982,0,0,0,2.919-2.338,6,6,0,0,1,11.7,0A2.98,2.98,0,0,0,46.77,63H52a3,3,0,0,0,3-3V47H49.286a1.032,1.032,0,1,1,0-2ZM36,47H31a1,1,0,0,1,0-2h5a1,1,0,0,1,0,2Zm9,0H40a1,1,0,0,1,0-2h5a1,1,0,0,1,0,2Z"/><path class="b" d="M42.49,22.129,27,13.416V2a1,1,0,1,0-2,0V13.416L9.51,22.129A1,1,0,0,0,9,23V41a1,1,0,0,0,.51.871l16,9a1,1,0,0,0,.98,0l16-9A1,1,0,0,0,43,41V23a1,1,0,0,0-.51-.871ZM41,40.415,26,48.853,11,40.415V23.585l15-8.438,15,8.438Z"/><path class="b" d="M22.374,40.726a1,1,0,0,0,1.309-.536l6.694-15.95a1,1,0,0,0-1.844-.773l-6.694,15.95a1,1,0,0,0,.535,1.309Z"/><path class="b" d="M25.437,26.547a4.223,4.223,0,0,0-3.958-4.437,4.224,4.224,0,0,0-3.958,4.437,4.223,4.223,0,0,0,3.958,4.437,4.222,4.222,0,0,0,3.958-4.437Zm-3.958,2.437a2.239,2.239,0,0,1-1.958-2.437,2.239,2.239,0,0,1,1.958-2.437,2.239,2.239,0,0,1,1.958,2.437,2.239,2.239,0,0,1-1.958,2.437Z"/><path class="b" d="M26.562,37.453a4.224,4.224,0,0,0,3.959,4.437,4.224,4.224,0,0,0,3.958-4.437,4.223,4.223,0,0,0-3.958-4.437A4.223,4.223,0,0,0,26.562,37.453Zm3.959-2.437a2.239,2.239,0,0,1,1.958,2.437,2.239,2.239,0,0,1-1.958,2.437,2.239,2.239,0,0,1-1.959-2.437A2.239,2.239,0,0,1,30.521,35.016Z"/></g></svg>