<svg xmlns="http://www.w3.org/2000/svg" width="61" height="62" viewBox="0 0 61 62"><defs><style>.a{opacity:0.22;}.b{fill:#f46e27;}</style></defs><g transform="translate(-1.5 -1)"><g class="a"><path class="b" d="M59.5,57h-42a3,3,0,0,0,0,6h42a3,3,0,0,0,0-6Z"/><path class="b" d="M48.5,55h10a1,1,0,0,0,1-1V16a3,3,0,0,0-3-3h-6a3,3,0,0,0-3,3V54A1,1,0,0,0,48.5,55Z"/><path class="b" d="M33.5,55h10a1,1,0,0,0,1-1V28a3,3,0,0,0-3-3h-6a3,3,0,0,0-3,3V54A1,1,0,0,0,33.5,55Z"/><path class="b" d="M18.5,55h10a1,1,0,0,0,1-1V40a3,3,0,0,0-3-3h-6a3,3,0,0,0-3,3V54A1,1,0,0,0,18.5,55Z"/></g><path class="b" d="M26.5,1a25,25,0,1,0,25,25A25,25,0,0,0,26.5,1Zm0,48a23,23,0,1,1,23-23,23,23,0,0,1-23,23Z"/><path class="b" d="M26.5,6a20,20,0,1,0,20,20A20,20,0,0,0,26.5,6Zm0,38a18,18,0,1,1,18-18,18,18,0,0,1-18,18Z"/><path class="b" d="M10.438,4.419a.407.407,0,0,0,.407-.407V2.657a.407.407,0,0,0-.407-.407H.407A.407.407,0,0,0,0,2.657V4.173a.407.407,0,0,0,.407.407H3.3A2.445,2.445,0,0,1,5.363,5.5H.407A.407.407,0,0,0,0,5.91V7.265a.407.407,0,0,0,.407.407h5.38A2.342,2.342,0,0,1,3.253,9.659H.407A.407.407,0,0,0,0,10.066v1.8a.407.407,0,0,0,.131.3l5.593,5.163A.407.407,0,0,0,6,17.432H8.8a.407.407,0,0,0,.276-.705l-5.113-4.72A4.643,4.643,0,0,0,8.648,7.672h1.79a.407.407,0,0,0,.407-.407V5.91a.407.407,0,0,0-.407-.407H8.449a4.642,4.642,0,0,0-.483-1.084Z" transform="translate(20.828 15.909)"/></g></svg>