<svg xmlns="http://www.w3.org/2000/svg" width="63.769" height="54.842" viewBox="0 0 63.769 54.842"><defs><style>.a,.b{fill:#f46e27;}.b{opacity:0.22;}</style></defs><g transform="translate(-887.231 -2000.806)"><g transform="translate(887.231 1946.806)"><g transform="translate(2.361 83.831)"><g transform="translate(0 0)"><path class="a" d="M22.016,307.056a1.18,1.18,0,1,0,.346.835A1.189,1.189,0,0,0,22.016,307.056Z" transform="translate(-20.001 -306.71)"/></g></g><g transform="translate(0 54)"><g transform="translate(0 0)"><path class="a" d="M6.737,56.707,4.376,54.346a1.181,1.181,0,0,0-1.67,0L.346,56.707a1.181,1.181,0,0,0,1.67,1.67l.346-.346V80.252a1.18,1.18,0,0,0,2.361,0V58.03l.346.346a1.181,1.181,0,0,0,1.669-1.67Z" transform="translate(0 -54)"/></g></g><g transform="translate(2.361 76.845)"><path class="a" d="M77.734,267.995l-2.361-2.361a1.181,1.181,0,0,0-1.67,1.67l.346.346H69.812V251.083a1.18,1.18,0,1,0-2.361,0v16.566H54.66v-7.555a1.18,1.18,0,1,0-2.361,0v7.555H42.486V248.705a1.18,1.18,0,1,0-2.361,0v18.943H30.647v-7.378a1.18,1.18,0,0,0-2.361,0v7.378H22.362v-6.794a1.18,1.18,0,1,0-2.361,0v7.975a1.181,1.181,0,0,0,1.18,1.18H74.049l-.346.346a1.18,1.18,0,1,0,1.669,1.669l2.361-2.361A1.18,1.18,0,0,0,77.734,267.995Z" transform="translate(-20.001 -247.525)"/></g><g transform="translate(7.564 63.146)"><g transform="translate(0 0)"><path class="a" d="M107.5,131.476a4.26,4.26,0,0,0-3.825,6.141l-9.243,9.243a4.251,4.251,0,0,0-4.129-.024l-6.252-6.252a4.262,4.262,0,1,0-7.637.242L70.4,146.851a4.266,4.266,0,1,0,1.671,1.668l6-6a4.248,4.248,0,0,0,4.449-.137l6.117,6.117a4.262,4.262,0,1,0,7.464.041l9.175-9.175a4.262,4.262,0,1,0,2.234-7.89ZM68.34,152.484a1.9,1.9,0,1,1,1.322-3.265l.017.019.022.02a1.9,1.9,0,0,1-1.361,3.227Zm11.839-11.763a1.9,1.9,0,1,1,1.9-1.9A1.9,1.9,0,0,1,80.178,140.721Zm12.174,11.756a1.9,1.9,0,1,1,1.9-1.9A1.9,1.9,0,0,1,92.352,152.478Zm15.153-14.838a1.9,1.9,0,1,1,1.9-1.9A1.9,1.9,0,0,1,107.505,137.64Z" transform="translate(-64.077 -131.476)"/></g></g><g transform="translate(49.812 74.304)"><path class="a" d="M423.986,226.346a1.18,1.18,0,1,0,.346.835A1.189,1.189,0,0,0,423.986,226.346Z" transform="translate(-421.971 -226)"/></g></g><path class="b" d="M-20.385-29.7a8.518,8.518,0,0,1,2.4-6.426A8.529,8.529,0,0,1-11.8-38.448a8.529,8.529,0,0,1,6.183,2.322,8.518,8.518,0,0,1,2.4,6.426,8.59,8.59,0,0,1-2.4,6.48A8.529,8.529,0,0,1-11.8-20.9a8.529,8.529,0,0,1-6.183-2.322A8.59,8.59,0,0,1-20.385-29.7Zm34.668-8.1L-6.939,0h-7.344L6.885-37.8Zm-26.136,3.888q-2.97,0-2.97,4.212,0,4.266,2.97,4.266a2.7,2.7,0,0,0,2.268-1.053,5.244,5.244,0,0,0,.81-3.213Q-8.775-33.912-11.853-33.912ZM3.321-8.154a8.5,8.5,0,0,1,2.4-6.453,8.585,8.585,0,0,1,6.183-2.3,8.4,8.4,0,0,1,6.129,2.3,8.609,8.609,0,0,1,2.349,6.453,8.7,8.7,0,0,1-2.349,6.48A8.343,8.343,0,0,1,11.907.648,8.506,8.506,0,0,1,5.7-1.674,8.645,8.645,0,0,1,3.321-8.154Zm8.532-4.212q-3.078,0-3.078,4.212,0,4.266,3.078,4.266,3.024,0,3.024-4.266Q14.877-12.366,11.853-12.366Z" transform="translate(930.615 2055)"/></g></svg>