<svg xmlns="http://www.w3.org/2000/svg" width="65" height="52" viewBox="0 0 65 52"><defs><style>.a{fill:#f46e27;}.b{opacity:0.22;}</style></defs><g transform="translate(-231 -1998)"><g transform="translate(231 1997)"><path class="a" d="M30.077,38.228a18.285,18.285,0,0,1-7.639-2.075c-3.251-1.542-4.818-1.488-5.854-1.439a3.008,3.008,0,0,1-2.563-.794c-.3-.3-1.67-1.942,1.021-4.634a6.756,6.756,0,0,1,4.782-1.751L10.5,18.214a3.267,3.267,0,0,1,.007-4.629,3.273,3.273,0,0,1,2.316-.964h0a3.239,3.239,0,0,1,2.311.96l3.871,3.874a3.215,3.215,0,0,1,.614-.845,3.265,3.265,0,0,1,3.287-.814,3.278,3.278,0,0,1,5.225-1.389,3.224,3.224,0,0,1,.616-.854,3.278,3.278,0,0,1,4.631-.007l6.07,6.07c3.811,3.808,3.386,9.33-1.036,13.755l-.029.029-2.511,2.509a7.913,7.913,0,0,1-5.8,2.32ZM17.192,32.452A14.04,14.04,0,0,1,23.4,34.12c6.711,3.186,9.431,1.639,10.9.193l2.531-2.531a.212.212,0,0,1,.022-.022c2.68-2.711,4.517-7.053,1.032-10.537L31.8,15.134a1.032,1.032,0,0,0-1.461,1.457l0,0,1.518,1.518A1.125,1.125,0,0,1,30.266,19.7l-3.541-3.541a1.031,1.031,0,0,0-1.457,1.459L27.8,20.15a1.125,1.125,0,1,1-1.589,1.592L22.667,18.2a1.033,1.033,0,0,0-1.756.737,1.012,1.012,0,0,0,.3.719l2.529,2.529a1.125,1.125,0,0,1-1.589,1.592l-8.6-8.6a1.016,1.016,0,0,0-.722-.3,1.044,1.044,0,0,0-1.034,1.034,1.014,1.014,0,0,0,.3.722L23.726,28.271a1.119,1.119,0,0,1,.171,1.367,1.134,1.134,0,0,1-1.284.506c-.043-.011-4.069-1.167-5.985.744-.87.872-1,1.407-.976,1.527.094.065.117.09.841.061.209-.013.441-.022.7-.022Zm12.361-18.1h.022Z" transform="translate(11.913 14.467)"/><path class="a" d="M41.592,16.737H7.869A7.869,7.869,0,1,1,7.869,1H41.592a7.869,7.869,0,0,1,0,15.737ZM7.869,3.248a5.621,5.621,0,1,0,0,11.241H41.592a5.621,5.621,0,1,0,0-11.241Z" transform="translate(0 0)"/><path class="a" d="M6.372,9.745A3.372,3.372,0,1,1,9.745,6.372,3.376,3.376,0,0,1,6.372,9.745Zm0-4.5A1.124,1.124,0,1,0,7.5,6.372,1.126,1.126,0,0,0,6.372,5.248Z" transform="translate(3.745 2.496)"/><path class="a" d="M11.372,9.745a3.372,3.372,0,1,1,3.372-3.372A3.376,3.376,0,0,1,11.372,9.745Zm0-4.5A1.124,1.124,0,1,0,12.5,6.372,1.126,1.126,0,0,0,11.372,5.248Z" transform="translate(9.986 2.496)"/><path class="a" d="M16.862,22.737H7.869A7.869,7.869,0,0,1,7.869,7H41.592a7.877,7.877,0,0,1,7.869,7.869,1.124,1.124,0,1,1-2.248,0,5.627,5.627,0,0,0-5.621-5.621H7.869a5.621,5.621,0,0,0,0,11.241h8.993a1.124,1.124,0,1,1,0,2.248Z" transform="translate(0 7.489)"/><path class="a" d="M6.372,15.745a3.372,3.372,0,1,1,3.372-3.372A3.376,3.376,0,0,1,6.372,15.745Zm0-4.5A1.124,1.124,0,1,0,7.5,12.372,1.126,1.126,0,0,0,6.372,11.248Z" transform="translate(3.745 9.986)"/><path class="a" d="M11.372,15.745a3.372,3.372,0,1,1,3.372-3.372A3.376,3.376,0,0,1,11.372,15.745Zm0-4.5A1.124,1.124,0,1,0,12.5,12.372,1.126,1.126,0,0,0,11.372,11.248Z" transform="translate(9.986 9.986)"/><path class="a" d="M21.358,28.737H7.869A7.869,7.869,0,0,1,7.869,13h8.993a1.124,1.124,0,1,1,0,2.248H7.869a5.621,5.621,0,1,0,0,11.241H21.358a1.124,1.124,0,0,1,0,2.248Z" transform="translate(0 14.978)"/><path class="a" d="M6.372,21.745a3.372,3.372,0,1,1,3.372-3.372A3.376,3.376,0,0,1,6.372,21.745Zm0-4.5A1.124,1.124,0,1,0,7.5,18.372,1.126,1.126,0,0,0,6.372,17.248Z" transform="translate(3.745 17.475)"/></g><g class="b" transform="translate(233.5 1987)"><path class="a" d="M59.5,57h-42a3,3,0,0,0,0,6h42a3,3,0,0,0,0-6Z"/><path class="a" d="M48.5,55h10a1,1,0,0,0,1-1V16a3,3,0,0,0-3-3h-6a3,3,0,0,0-3,3V54A1,1,0,0,0,48.5,55Z"/><path class="a" d="M33.5,55h10a1,1,0,0,0,1-1V28a3,3,0,0,0-3-3h-6a3,3,0,0,0-3,3V54A1,1,0,0,0,33.5,55Z"/><path class="a" d="M18.5,55h10a1,1,0,0,0,1-1V40a3,3,0,0,0-3-3h-6a3,3,0,0,0-3,3V54A1,1,0,0,0,18.5,55Z"/></g></g></svg>