<svg xmlns="http://www.w3.org/2000/svg" xmlns:xlink="http://www.w3.org/1999/xlink" width="1378.865" height="329.889" viewBox="0 0 1378.865 329.889"><defs><style>.a{fill:url(#a);}.b{fill:none;stroke:#c8e2ff;stroke-width:2px;stroke-dasharray:10;opacity:0.26;}</style><linearGradient id="a" x1="0.105" y1="1.298" x2="0.791" y2="0.117" gradientUnits="objectBoundingBox"><stop offset="0" stop-color="#1c5c99"/><stop offset="1" stop-color="#0eaac9"/></linearGradient></defs><g transform="translate(0 -1829)"><path class="a" d="M5,0H1362a5,5,0,0,1,5,5V311a5,5,0,0,1-5,5s-171.886,31.25-513.086,0S5,316,5,316a5,5,0,0,1-5-5V5A5,5,0,0,1,5,0Z" transform="translate(0 1829)"/><path class="b" d="M-1551.358,2063.206c41.035,18.433-183.217,59.383-182.606-59.092s131.036-116.319,241.409-109.549c208.586,3.671,235.08,225.171,325.334,109.549s166.468,31.2,72.2-9.176,94.265-152.328,290.817-91.764,425.636-18.353,425.636-18.353" transform="translate(1757.104 23)"/></g></svg>