<svg xmlns="http://www.w3.org/2000/svg" width="52.852" height="54.278" viewBox="0 0 52.852 54.278"><defs><style>.a,.b{fill:#f46e27;}.a{stroke:#fff;stroke-width:0.5px;}.b{opacity:0.2;}</style></defs><g transform="translate(-459.413 -724.704)"><g transform="translate(431.177 708.953)"><path class="a" d="M146.3,21.718l-.585-.146A1.383,1.383,0,0,0,144,22.914V36.3A32.324,32.324,0,0,0,162.778,65.65a1.383,1.383,0,0,0,1.159,0A32.324,32.324,0,0,0,182.715,36.3V22.914A1.383,1.383,0,0,0,181,21.572l-.585.146A15.91,15.91,0,0,1,164.42,16.5a1.382,1.382,0,0,0-2.124,0A15.91,15.91,0,0,1,146.3,21.718Zm17.055-2.28a18.59,18.59,0,0,0,16.592,5.209V36.3a29.649,29.649,0,0,1-16.592,26.563A29.649,29.649,0,0,1,146.765,36.3V24.647a18.59,18.59,0,0,0,16.592-5.209Z" transform="translate(-115.514 0)"/><rect class="a" width="4" height="2" transform="translate(34.823 28.047)"/><path class="a" d="M178.765,74.622H176v4.357a22.357,22.357,0,0,0,13.265,20.412,1.383,1.383,0,0,0,1.123,0,22.356,22.356,0,0,0,13.265-20.412V69.091a1.383,1.383,0,0,0-1.718-1.341,12.3,12.3,0,0,1-9.373-1.395l-2.025-1.215-1.423,2.371,2.025,1.215a15.03,15.03,0,0,0,9.748,2.034v8.219A19.591,19.591,0,0,1,189.827,96.6a19.591,19.591,0,0,1-11.062-17.625Z" transform="translate(-141.983 -40.646)"/><path class="a" d="M236.148,192.3A4.148,4.148,0,1,0,232,188.148,4.148,4.148,0,0,0,236.148,192.3Zm0-5.531a1.383,1.383,0,1,1-1.383,1.383A1.383,1.383,0,0,1,236.148,186.765Z" transform="translate(-188.304 -138.963)"/><path class="a" d="M233.4,115.257a1.383,1.383,0,0,0,1.369,1.187h2.765a1.383,1.383,0,0,0,1.369-1.187l1.383-9.679A1.383,1.383,0,0,0,238.914,104h-5.531a1.383,1.383,0,0,0-1.369,1.578Zm3.923-8.492-.988,6.913h-.367l-.988-6.913Z" transform="translate(-188.304 -72.79)"/></g><path class="b" d="M31.7,8.837A1.235,1.235,0,0,0,32.938,7.6V3.485A1.235,1.235,0,0,0,31.7,2.25H1.235A1.235,1.235,0,0,0,0,3.485V8.091A1.235,1.235,0,0,0,1.235,9.326h8.778a7.426,7.426,0,0,1,6.276,2.805H1.235A1.235,1.235,0,0,0,0,13.366v4.117a1.235,1.235,0,0,0,1.235,1.235H17.576c-.64,3.714-3.393,6.035-7.695,6.035H1.235A1.235,1.235,0,0,0,0,25.989v5.457a1.235,1.235,0,0,0,.4.908L17.386,48.035a1.235,1.235,0,0,0,.838.328h8.5a1.235,1.235,0,0,0,.838-2.143L12.029,31.884c7.874-.241,13.5-5.5,14.237-13.165H31.7a1.235,1.235,0,0,0,1.235-1.235V13.366A1.235,1.235,0,0,0,31.7,12.131H25.661a14.1,14.1,0,0,0-1.467-3.294Z" transform="translate(479.328 730.619)"/></g></svg>