<svg xmlns="http://www.w3.org/2000/svg" width="58" height="52.302" viewBox="0 0 58 52.302"><defs><style>.a,.c{fill:#f46e27;}.b{opacity:0.2;}.c{stroke:#f46e27;stroke-width:2px;}</style></defs><g transform="translate(-710 -724.953)"><g transform="translate(642 724.953)"><g transform="translate(68)"><g transform="translate(0)"><path class="a" d="M105.281,34.31l-4.156-4.987V4.359A4.363,4.363,0,0,0,96.766,0H72.359A4.363,4.363,0,0,0,68,4.359V40.97a4.363,4.363,0,0,0,4.359,4.359H91.536V46.2a.868.868,0,0,0,.255.616l3.231,3.231v1.383a.871.871,0,0,0,.872.872h8.717a.871.871,0,0,0,.872-.872V34.868A.873.873,0,0,0,105.281,34.31ZM69.743,4.359a2.618,2.618,0,0,1,2.615-2.615H96.766a2.618,2.618,0,0,1,2.615,2.615V6.1H69.743ZM91.536,43.585H72.359a2.618,2.618,0,0,1-2.615-2.615V39.227H91.536Zm0-12.64v6.538H69.743V7.845H99.381V37.994l-1.743-1.743V30.946a3.051,3.051,0,1,0-6.1,0Zm12.2,19.613H96.766v-.872a.868.868,0,0,0-.255-.616L93.28,45.84V30.946a1.308,1.308,0,1,1,2.615,0v5.666a.868.868,0,0,0,.255.616l3.487,3.487a.871.871,0,0,0,1.488-.616V32.046l2.615,3.139Z" transform="translate(-68)"/></g></g><g transform="translate(71.487 11.333)"><path class="a" d="M125.572,108.414l-12.2-4.359a.869.869,0,0,0-.587,0l-12.2,4.359a.871.871,0,0,0,0,1.641l.293.105v8.663h1.743v-8.041l2.615.934v6.235a.873.873,0,0,0,.566.817l6.974,2.615a.88.88,0,0,0,.612,0l6.974-2.615a.873.873,0,0,0,.566-.817v-6.235l4.651-1.661a.871.871,0,0,0,0-1.641Zm-6.395,8.933-6.1,2.288-6.1-2.288v-5.008l5.809,2.075a.884.884,0,0,0,.293.051.864.864,0,0,0,.293-.051l5.809-2.074Zm-6.1-4.68-9.612-3.433,9.612-3.433,9.612,3.433Z" transform="translate(-100 -104.004)"/></g><g transform="translate(78.223 34.102)"><g transform="translate(0 0)"><rect class="a" width="2" height="2" transform="translate(-0.223 -0.055)"/></g></g><g transform="translate(74.815 34.102)"><g transform="translate(0 0)"><rect class="a" width="2" height="2" transform="translate(0.185 -0.055)"/></g></g><g transform="translate(71.408 34.102)"><g transform="translate(0 0)"><rect class="a" width="2" height="2" transform="translate(-0.408 -0.055)"/></g></g></g><g class="b" transform="translate(716.551 701.615)"><g transform="translate(2.449 27.804)"><path class="c" d="M43.2,25.6a4.79,4.79,0,0,0-3.45,8.123l-8.77,17.536A4.642,4.642,0,0,0,30.4,51.2a4.78,4.78,0,0,0-1.806.358L21.786,43.9a4.743,4.743,0,0,0,.614-2.3,4.8,4.8,0,1,0-8.422,3.114L5.658,59.286A4.816,4.816,0,0,0,4.8,59.2a4.858,4.858,0,1,0,3.622,1.686l8.32-14.573a4.564,4.564,0,0,0,2.658-.272L26.208,53.7A4.742,4.742,0,0,0,25.6,56a4.8,4.8,0,1,0,8.25-3.323l8.77-17.536a4.64,4.64,0,0,0,.581.059,4.8,4.8,0,1,0,0-9.6ZM4.8,65.6A1.6,1.6,0,1,1,6.4,64,1.6,1.6,0,0,1,4.8,65.6ZM17.6,43.2a1.6,1.6,0,1,1,1.6-1.6A1.6,1.6,0,0,1,17.6,43.2ZM30.4,57.6A1.6,1.6,0,1,1,32,56,1.6,1.6,0,0,1,30.4,57.6ZM43.2,32a1.6,1.6,0,1,1,1.6-1.6A1.6,1.6,0,0,1,43.2,32Z" transform="translate(0 -25.6)"/></g></g></g></svg>