<svg xmlns="http://www.w3.org/2000/svg" width="64.124" height="51.953" viewBox="0 0 64.124 51.953"><defs><style>.a{fill:#f46e27;}.b{opacity:0.22;}</style></defs><g transform="translate(-560 -2002.681)"><g transform="translate(560 2001.181)"><g transform="translate(0 1.5)"><g transform="translate(0 0)"><path class="a" d="M45.369,1.5H2.475a2.475,2.475,0,0,0,0,4.949V40.27a.825.825,0,0,0,.825.825h9.832L7.6,48l1.288,1.031,6.352-7.94H23.1v1.8a2.475,2.475,0,1,0,1.65,0v-1.8H32.6l6.352,7.94L40.239,48l-5.527-6.908h9.832a.825.825,0,0,0,.825-.825V6.449a2.475,2.475,0,0,0,0-4.949ZM23.922,46.044a.825.825,0,1,1,.825-.825A.825.825,0,0,1,23.922,46.044Zm19.8-6.6H4.124v-33H43.719ZM45.369,4.8H2.475a.825.825,0,1,1,0-1.65H45.369a.825.825,0,0,1,0,1.65Z" transform="translate(0 -1.5)"/></g></g><g transform="translate(7.689 28.257)"><g transform="translate(0 0)"><rect class="a" width="13" height="2" transform="translate(0.311 -0.438)"/></g></g><g transform="translate(7.689 30.821)"><g transform="translate(0 0)"><rect class="a" width="13" height="2" transform="translate(0.311 -0.002)"/></g></g><g transform="translate(7.689 34.238)"><g transform="translate(0 0)"><rect class="a" width="9" height="2" transform="translate(0.311 -0.419)"/></g></g><g transform="translate(13.669 24.84)"><g transform="translate(0 0)"><rect class="a" width="7" height="2" transform="translate(0.331 -0.021)"/></g></g><g transform="translate(27.339 12.879)"><g transform="translate(0 0)"><rect class="a" width="13" height="2" transform="translate(-0.339 -0.06)"/></g></g><g transform="translate(27.339 16.296)"><g transform="translate(0 0)"><rect class="a" width="13" height="2" transform="translate(-0.339 -0.477)"/></g></g><g transform="translate(27.339 19.714)"><g transform="translate(0 0)"><rect class="a" width="10" height="2" transform="translate(-0.339 0.105)"/></g></g><g transform="translate(34.174 9.462)"><g transform="translate(0 0)"><rect class="a" width="6" height="1" transform="translate(-0.173 0.357)"/></g></g><g transform="translate(7.424 8.924)"><path class="a" d="M78.6,73.5a6.6,6.6,0,1,0,6.6,6.6A6.6,6.6,0,0,0,78.6,73.5Zm.85,1.729a4.944,4.944,0,0,1,3.14,1.953l-3.164,1.58Zm-3.7.834a4.936,4.936,0,0,1,2.057-.839l-.03,4.545-3.217,3.173A4.937,4.937,0,0,1,75.747,76.063Zm4.3,8.77a4.924,4.924,0,0,1-4.33-.722L79.1,80.771l4.231-2.116A4.949,4.949,0,0,1,80.042,84.833Z" transform="translate(-72 -73.5)"/></g><g transform="translate(25.63 31.675)"><g transform="translate(0 0)"><rect class="a" width="1" height="4" transform="translate(0.37 0.144)"/></g></g><g transform="translate(38.445 29.966)"><g transform="translate(0 0)"><rect class="a" width="2" height="6" transform="translate(-0.445 -0.147)"/></g></g><g transform="translate(29.048 29.966)"><g transform="translate(0 0)"><rect class="a" width="2" height="6" transform="translate(-0.048 -0.147)"/></g></g><g transform="translate(32.465 26.549)"><g transform="translate(0 0)"><rect class="a" width="2" height="9" transform="translate(-0.465 0.27)"/></g></g><g transform="translate(35.883 29.112)"><g transform="translate(0 0)"><rect class="a" width="1" height="7" transform="translate(0.117 -0.293)"/></g></g><g transform="translate(11.106 24.84)"><g transform="translate(0 0)"><rect class="a" width="1" height="2" transform="translate(-0.106 -0.021)"/></g></g><g transform="translate(30.756 9.462)"><g transform="translate(0 0)"><rect class="a" width="1" height="1" transform="translate(0.244 0.357)"/></g></g></g><g class="b" transform="translate(578 2007.985)"><g transform="translate(0 0.641)"><path class="a" d="M43.31,34.506l-6.45-4.838a18.523,18.523,0,0,0,2.3-9.445A19.582,19.582,0,1,0,19.582,39.8a21.969,21.969,0,0,0,9.445-2.3l4.838,6.45a6.939,6.939,0,0,0,10.367.691A6.719,6.719,0,0,0,43.31,34.506ZM19.582,35.2A14.974,14.974,0,1,1,34.556,20.223,14.944,14.944,0,0,1,19.582,35.2Z" transform="translate(0 -0.641)"/></g></g></g></svg>