<svg xmlns="http://www.w3.org/2000/svg" width="18.999" height="19" viewBox="0 0 18.999 19"><defs><style>.a{opacity:0.2;}</style></defs><path class="a" d="M23.49,23.02c-.356-1.573-2.39-2.34-3.092-2.588a23.056,23.056,0,0,0-2.578-.495,2.619,2.619,0,0,1-1.192-.549,10.422,10.422,0,0,1-.079-2.439,7.339,7.339,0,0,0,.564-1.074A13.849,13.849,0,0,0,17.528,14s.406,0,.549-.713a7.01,7.01,0,0,0,.366-1.658c-.03-.569-.341-.554-.341-.554a8.675,8.675,0,0,0,.336-2.538C18.483,6.5,16.89,4.5,14.005,4.5c-2.924,0-4.483,2-4.438,4.037A9.049,9.049,0,0,0,9.9,11.076s-.312-.015-.341.554a7.01,7.01,0,0,0,.366,1.658c.139.713.549.713.549.713a13.849,13.849,0,0,0,.416,1.875,7.339,7.339,0,0,0,.564,1.074,10.422,10.422,0,0,1-.079,2.439,2.619,2.619,0,0,1-1.192.549,23.056,23.056,0,0,0-2.578.495c-.7.247-2.736,1.014-3.092,2.588a.4.4,0,0,0,.391.48H23.1A.4.4,0,0,0,23.49,23.02Z" transform="translate(-4.501 -4.5)"/></svg>