<svg xmlns="http://www.w3.org/2000/svg" width="74.7" height="74.7">
	<path fill="#5DC6CF" d="M65.03 58.553a4.5 4.5 0 01-3.846-6.83 27.876 27.876 0 004.029-14.445c0-7.372-2.838-14.304-7.988-19.517a4.5 4.5 0 116.4-6.326c6.828 6.909 10.588 16.087 10.588 25.843a36.89 36.89 0 01-5.33 19.107 4.499 4.499 0 01-3.853 2.168z" />
	<path fill="#5DC6CF" d="M37.314 74.178C17.007 74.178.486 57.657.486 37.35.486 17.043 17.007.522 37.314.522c5.521 0 10.87 1.212 15.899 3.604a4.5 4.5 0 01-3.863 8.128c-3.814-1.813-7.863-2.732-12.036-2.732-15.344 0-27.828 12.484-27.828 27.828 0 15.343 12.484 27.828 27.828 27.828 5.993 0 11.763-1.934 16.683-5.592a4.502 4.502 0 016.297.926 4.502 4.502 0 01-.926 6.297c-6.484 4.82-14.111 7.369-22.054 7.369z" />
	<path fill="#1697D4" d="M36.954 61.002c-13.081 0-23.724-10.643-23.724-23.724s10.643-23.724 23.724-23.724c3.789 0 7.551.926 10.879 2.678a4.5 4.5 0 01-4.191 7.965 14.402 14.402 0 00-6.688-1.643c-8.118 0-14.724 6.605-14.724 14.724s6.605 14.724 14.724 14.724c5 0 9.59-2.486 12.273-6.65a4.5 4.5 0 117.565 4.877c-4.35 6.746-11.766 10.773-19.838 10.773z" />
	<path fill="#1697D4" d="M33.567 48.547a4.5 4.5 0 01-4.005-6.549l12.167-23.831a4.5 4.5 0 118.016 4.093L37.578 46.092a4.5 4.5 0 01-4.011 2.455z" />
	<g>
		<path fill="#91D6F5" d="M56.106 41.777a4.5 4.5 0 01-4.5-4.5c0-2.53-.611-4.925-1.818-7.12a4.498 4.498 0 117.884-4.337 23.817 23.817 0 012.934 11.457 4.5 4.5 0 01-4.5 4.5z" />
	</g>
</svg>