<svg xmlns="http://www.w3.org/2000/svg" width="220.959" height="75" viewBox="238.055 164.656 220.959 75">
    <path fill="#ffffff" d="M450.612 217.564c-.575 0-1.079.144-1.367.432-.36.288-.505.648-.505 1.152s.145.863.505 1.151c.359.288.792.433 1.439.433.576 0 1.08-.145 1.44-.433.359-.288.504-.647.504-1.151s-.216-.864-.576-1.152-.864-.432-1.44-.432zm2.521-1.296c1.152 0 1.944.217 2.376.648s.72 1.225.72 2.305c0 .791-.144 1.439-.504 1.871-.36.504-.792.721-1.368.721v-1.44c.216 0 .433-.144.576-.36.145-.216.216-.504.216-.863 0-.576-.144-.937-.359-1.225-.217-.216-.648-.359-1.225-.359h-.792c.36.215.576.504.721.791.144.289.216.648.216 1.08 0 .793-.288 1.44-.864 1.944-.576.433-1.296.72-2.304.72-.937 0-1.656-.216-2.232-.72s-.864-1.08-.864-1.872c0-.504.072-.863.288-1.224.217-.36.504-.576.864-.72h-.936v-1.297h5.471zm.36-3.096h-9.433v-1.296h9.433v1.296zm-2.881-9c-.504 0-1.008.145-1.367.504-.36.36-.576.792-.576 1.297 0 .504.216.936.576 1.223.359.361.792.505 1.367.505.505 0 1.009-.144 1.368-.505.36-.359.576-.791.576-1.223 0-.505-.216-.937-.576-1.225-.359-.359-.792-.504-1.368-.504v-.072zm0 4.969c-.432 0-.792-.072-1.224-.217-.36-.145-.72-.359-1.008-.72a3.004 3.004 0 01-.648-1.009 3.354 3.354 0 01-.216-1.223c0-.433.072-.865.216-1.225.145-.359.36-.721.648-1.008.288-.288.647-.504 1.008-.721a3.26 3.26 0 011.152-.215c.432 0 .792.071 1.224.215.36.145.72.36 1.008.648s.504.648.721 1.08c.144.359.216.792.216 1.225 0 .432-.072.791-.216 1.223-.145.361-.36.721-.648 1.009s-.648.504-1.008.72c-.36.145-.792.218-1.225.218zm0-10.225c.576 0 1.08-.144 1.44-.432s.576-.72.576-1.152c0-.504-.145-.864-.504-1.152-.36-.288-.792-.432-1.44-.432-.576 0-1.08.144-1.439.432-.36.288-.505.648-.505 1.152s.145.864.505 1.152c.359.288.792.432 1.367.432zm-6.479-.072h4.607c-.359-.144-.647-.432-.863-.72-.216-.36-.288-.72-.288-1.224 0-.792.288-1.368.864-1.872.575-.504 1.296-.72 2.231-.72.937 0 1.729.216 2.304.72.576.432.864 1.08.864 1.944 0 .432-.072.792-.216 1.08-.144.288-.432.576-.72.792h.72v1.296h-9.432v-1.296h-.071zm9.431-12.6v1.296h-.72c.36.216.576.504.72.792.145.288.216.648.216 1.08 0 .792-.287 1.44-.863 1.944-.576.432-1.296.72-2.305.72-.936 0-1.655-.216-2.231-.72s-.864-1.08-.864-1.872c0-.504.072-.864.288-1.224.216-.36.504-.576.864-.72h-.937v-1.296h5.832zm-2.879 1.296c-.576 0-1.08.144-1.368.432-.359.288-.504.648-.504 1.152s.145.864.504 1.152c.36.288.792.432 1.44.432.576 0 1.08-.144 1.439-.432.36-.288.505-.648.505-1.152s-.217-.864-.576-1.152c-.36-.288-.864-.432-1.44-.432zm2.879-4.392h-9.432v-1.296h9.432v1.296z" />
    <path fill="#ffffff" d="M347.293 181.564c3.456 0 6.552.648 9.288 1.944 2.735 1.296 4.968 3.096 6.624 5.4 1.728 2.376 2.88 5.04 3.456 8.136h-11.809c-.647-1.584-1.656-2.88-3.023-3.744a8.754 8.754 0 00-4.752-1.368c-2.448 0-4.465.936-5.977 2.736-1.512 1.872-2.304 4.32-2.304 7.416s.792 5.544 2.304 7.416 3.528 2.809 5.977 2.809c1.8 0 3.384-.433 4.752-1.369a8.16 8.16 0 003.023-3.744h11.809c-.937 4.753-3.097 8.496-6.48 11.305s-7.704 4.176-12.96 4.176c-3.96 0-7.488-.863-10.44-2.592-2.951-1.729-5.256-4.176-6.911-7.271-1.584-3.097-2.448-6.696-2.448-10.656 0-3.96.792-7.56 2.448-10.656 1.584-3.096 3.888-5.544 6.911-7.272 2.952-1.728 6.48-2.592 10.44-2.592l.072-.074zm42.84-.216c3.816 0 7.271.864 10.439 2.664 3.168 1.8 5.616 4.248 7.416 7.416 1.801 3.168 2.736 6.696 2.736 10.656s-.936 7.488-2.736 10.656c-1.8 3.168-4.319 5.615-7.416 7.416-3.168 1.8-6.623 2.664-10.367 2.664s-7.2-.864-10.368-2.664c-3.168-1.801-5.616-4.248-7.488-7.416-1.8-3.168-2.736-6.696-2.736-10.656s.937-7.488 2.736-10.656c1.8-3.168 4.32-5.616 7.488-7.416 3.168-1.8 6.624-2.664 10.368-2.664h-.072zm0 10.368c-2.88 0-5.112.936-6.768 2.736-1.656 1.872-2.448 4.392-2.448 7.56 0 3.095.792 5.616 2.448 7.488 1.655 1.872 3.888 2.809 6.768 2.809 2.808 0 5.04-.937 6.696-2.809 1.655-1.872 2.447-4.393 2.447-7.488 0-3.168-.792-5.688-2.447-7.56-1.584-1.872-3.889-2.736-6.696-2.736zm35.784-.792v6.696h13.104v8.496h-13.104v7.272h14.76v8.928h-26.064v-40.393h26.064v8.928h-14.76v.073z" />
    <path fill="#5CC6D0" d="M305.385 223.36a4.5 4.5 0 01-3.845-6.831 27.876 27.876 0 004.028-14.444c0-7.372-2.837-14.304-7.988-19.517a4.5 4.5 0 016.401-6.326c6.827 6.909 10.587 16.087 10.587 25.843a36.874 36.874 0 01-5.33 19.106 4.499 4.499 0 01-3.853 2.169z" />
    <path fill="#5CC6D0" d="M277.669 238.984c-20.307 0-36.828-16.521-36.828-36.828s16.521-36.828 36.828-36.828c5.521 0 10.87 1.212 15.9 3.604a4.5 4.5 0 01-3.864 8.128c-3.813-1.813-7.862-2.732-12.036-2.732-15.344 0-27.828 12.484-27.828 27.828s12.484 27.828 27.828 27.828c5.994 0 11.764-1.934 16.684-5.592a4.5 4.5 0 015.37 7.222c-6.485 4.822-14.111 7.37-22.054 7.37z" />
    <path fill="#0098DA" d="M277.309 225.809c-13.081 0-23.724-10.643-23.724-23.725s10.643-23.724 23.724-23.724c3.789 0 7.551.926 10.88 2.678a4.501 4.501 0 01-4.191 7.965 14.402 14.402 0 00-6.688-1.643c-8.118 0-14.724 6.605-14.724 14.724s6.605 14.725 14.724 14.725c5.001 0 9.59-2.486 12.274-6.651a4.5 4.5 0 017.565 4.877c-4.351 6.746-11.767 10.774-19.84 10.774z" />
    <path fill="#0098DA" d="M273.922 213.353a4.5 4.5 0 01-4.005-6.547l12.168-23.832a4.5 4.5 0 118.016 4.093l-12.168 23.832a4.5 4.5 0 01-4.011 2.454z" />
    <g>
        <path fill="#91D8F7" d="M296.461 206.584a4.5 4.5 0 01-4.5-4.5c0-2.53-.611-4.925-1.818-7.12a4.5 4.5 0 117.885-4.337 23.827 23.827 0 012.933 11.457 4.5 4.5 0 01-4.5 4.5z" />
    </g>
</svg>