<svg xmlns="http://www.w3.org/2000/svg" width="22.123" height="22.123" viewBox="0 0 22.123 22.123"><defs><style>.a{fill:#006fbc;}</style></defs><g transform="translate(0)"><g transform="translate(4.148 4.148)"><path class="a" d="M104.987,96h-8.3a.691.691,0,0,0,0,1.383h8.3a.691.691,0,1,0,0-1.383Z" transform="translate(-96 -96)"/></g><g transform="translate(4.148 6.913)"><path class="a" d="M102.222,160H96.691a.691.691,0,0,0,0,1.383h5.531a.691.691,0,0,0,0-1.383Z" transform="translate(-96 -160)"/></g><g transform="translate(0)"><path class="a" d="M15.209,0H2.765A2.768,2.768,0,0,0,0,2.765V16.592a.691.691,0,0,0,.4.626.7.7,0,0,0,.293.065.691.691,0,0,0,.442-.16l3.956-3.3h10.12a2.768,2.768,0,0,0,2.765-2.765v-8.3A2.768,2.768,0,0,0,15.209,0Zm1.383,11.061a1.384,1.384,0,0,1-1.383,1.383H4.839a.691.691,0,0,0-.442.16L1.383,15.117V2.765A1.384,1.384,0,0,1,2.765,1.383H15.209a1.384,1.384,0,0,1,1.383,1.383Z"/></g><g transform="translate(5.531 5.531)"><path class="a" d="M141.827,128a.691.691,0,0,0,0,1.383,1.384,1.384,0,0,1,1.383,1.383v11.7l-2.334-1.867a.7.7,0,0,0-.431-.151h-9.679a1.384,1.384,0,0,1-1.383-1.383v-.691a.691.691,0,0,0-1.383,0v.691a2.768,2.768,0,0,0,2.765,2.765H140.2l3.267,2.615a.692.692,0,0,0,1.124-.541V130.765A2.768,2.768,0,0,0,141.827,128Z" transform="translate(-128 -128)"/></g></g></svg>