<svg xmlns="http://www.w3.org/2000/svg" width="25" height="21" viewBox="0 0 25 21"><defs><style>.a{fill:#006fbc;stroke:#fff;}</style></defs><g transform="translate(0.5 0.5)"><path class="a" d="M12,16a.749.749,0,0,1-.542-.232l-5.25-5.5A.75.75,0,0,1,6.75,9H9.5V3.25A1.252,1.252,0,0,1,10.75,2h2.5A1.252,1.252,0,0,1,14.5,3.25V9h2.75a.75.75,0,0,1,.542,1.268l-5.25,5.5A.749.749,0,0,1,12,16Z" transform="translate(0 -2)"/><path class="a" d="M22.25,22H1.75A1.752,1.752,0,0,1,0,20.25v-.5A1.752,1.752,0,0,1,1.75,18h20.5A1.752,1.752,0,0,1,24,19.75v.5A1.752,1.752,0,0,1,22.25,22Z" transform="translate(0 -2)"/></g></svg>