<svg xmlns="http://www.w3.org/2000/svg" xmlns:xlink="http://www.w3.org/1999/xlink" width="147.75" height="50" viewBox="0 0 147.75 50"><defs><style>.a,.c{fill:#fff;}.b{fill:#f6911d;}.c{fill-rule:evenodd;}.d{filter:url(#a);}</style><filter id="a" x="0" y="5.31" width="42.494" height="40.89" filterUnits="userSpaceOnUse"><feOffset dy="3" input="SourceAlpha"/><feGaussianBlur stdDeviation="3" result="b"/><feFlood flood-opacity="0.161"/><feComposite operator="in" in2="b"/><feComposite in="SourceGraphic"/></filter></defs><g transform="translate(53.732 27.481)"><path class="a" d="M32.139,8.618A7.834,7.834,0,0,0,29.169,8H22.735a15.36,15.36,0,0,0-3.652.307A5.683,5.683,0,0,0,16.54,9.4a4.079,4.079,0,0,0-1.3,3.226V26.982a.922.922,0,0,0,.836.87,5.119,5.119,0,0,0,1.024,0,.87.87,0,0,0,.819-.785,3.721,3.721,0,0,0,0-.751c0-1.058,0-2.133,0-3.191,0-.495,0-.495.512-.495h9.114a13.892,13.892,0,0,0,3.738-.495,4.147,4.147,0,0,0,3.277-4.1V12.476a4.045,4.045,0,0,0-2.423-3.857Zm-2.3,11.332a13.841,13.841,0,0,1-2.389.256H18.571c-.546,0-.546,0-.546-.563V12.766a2.082,2.082,0,0,1,1.707-2.2,13.244,13.244,0,0,1,2.15-.273h6.554a7.458,7.458,0,0,1,2.1.461A1.894,1.894,0,0,1,31.9,12.715v4.779a2.219,2.219,0,0,1-2.065,2.458Z" transform="translate(-7.25 -5.36)"/><path class="a" d="M45.06,8.367a8.806,8.806,0,0,0-2.816-.427h-8.4a14.319,14.319,0,0,0-2.7.29,3.669,3.669,0,0,0-3.14,3.7v6.52a3.567,3.567,0,0,0,1.178,2.731,5.581,5.581,0,0,0,3.5,1.331c1.911.119,3.84.119,5.752.154a3.123,3.123,0,0,0,.683-.085.973.973,0,0,0,.819-1.143.939.939,0,0,0-.973-1.024H35.554a20.48,20.48,0,0,1-2.9-.2,2.065,2.065,0,0,1-1.98-2.287V16.815c0-.358,0-.546.529-.546H46.34c.819,0,1.109-.307,1.109-1.109V11.746A3.294,3.294,0,0,0,45.06,8.367Zm-.768,5.854H31.27c-.375,0-.495-.119-.478-.478a7.544,7.544,0,0,0,0-1.075,2.082,2.082,0,0,1,2-2.321,6.69,6.69,0,0,1,1.434-.119h7.544a7.014,7.014,0,0,1,1.946.375,1.707,1.707,0,0,1,1.126,1.587c0,.529,0,1.041,0,1.57s-.137.461-.478.461Z" transform="translate(1.777 -5.399)"/><path class="a" d="M73.877,21.662a.956.956,0,0,1-.785.9,3.823,3.823,0,0,1-.87.119h-16.5a3.3,3.3,0,0,1-.717,0,1.178,1.178,0,0,1-.751-1.911,7.168,7.168,0,0,1,1.434-1.246l12.152-8.653a1.485,1.485,0,0,0,.41-.444H56.179a4.847,4.847,0,0,1-.87-.085A1.024,1.024,0,0,1,54.54,9.2a1.024,1.024,0,0,1,.768-1.195,5.854,5.854,0,0,1,.956,0H71.9c.751,0,1.161.273,1.314.785a1.5,1.5,0,0,1-.58,1.6c-.887.666-1.707,1.3-2.7,1.946l-10.8,7.612c-.085,0-.171.171-.256.256a.239.239,0,0,0,0,.1h13.4a4.113,4.113,0,0,1,.9.119C73.74,20.552,73.928,20.962,73.877,21.662Z" transform="translate(20.133 -5.364)"/><path class="b" d="M35.44.005V.176a.717.717,0,0,1-.2.137c-1.86.717-3.755,1.314-5.564,2.133A44.373,44.373,0,0,0,24.91,5.023c-1.263.751-2.458,1.707-3.669,2.509a15.992,15.992,0,0,0-1.707,1.485c-1.041,1.007-2.219,2.031-3.26,3.106a25,25,0,0,0-1.946,2.287c-.956,1.3-1.877,2.662-2.8,3.942a2.372,2.372,0,0,1-1.929.631,2.8,2.8,0,0,1-1.553-1.161c-.6-.666-1.143-1.382-1.707-2.082L4.379,13.454,3.252,12.191c-.239-.256-.563-.495-.393-.9a1.178,1.178,0,0,1,1.092-.87,2.918,2.918,0,0,1,1.263.239,11.23,11.23,0,0,1,3.7,2.867c.188.2.341.461.529.649a.327.327,0,0,0,.529,0c.495-.7.99-1.417,1.536-2.065a20.6,20.6,0,0,1,2.048-2.167C14.5,9.1,15.523,8.368,16.513,7.6A25.122,25.122,0,0,1,21.1,4.818c1.553-.768,3.157-1.468,4.762-2.133a32.614,32.614,0,0,1,3.277-1.246c1.4-.427,2.85-.751,4.267-1.109l1.6-.324a1.826,1.826,0,0,1,.427,0Z" transform="translate(-16.03 -11.014)"/><path class="a" d="M58.42,10.757a.99.99,0,0,1-.887,1.161,3.413,3.413,0,0,1-.58,0h-4.1c-.375,0-.512.1-.512.495v10.6c0,.512,0,1.024-.58,1.246a1.894,1.894,0,0,1-1.707-.1.956.956,0,0,1-.427-.853v-10.5c0-.973.137-.87-.87-.887a5.018,5.018,0,0,1-.87-.085c-.512-.119-.717-.478-.7-1.143s.29-.922.785-.99a5.971,5.971,0,0,1,1.109,0c.358,0,.546,0,.546-.546V6.968c0-1.041.478-1.434,1.553-1.365s1.212.427,1.229,1.314v2.2c0,.58,0,.58.563.58h4.489a.956.956,0,0,1,.956,1.058Z" transform="translate(15.331 -7.055)"/><path class="a" d="M50.524,10.132a2.389,2.389,0,0,1-.853.188H46.684a8.636,8.636,0,0,0-2.014.512,1.894,1.894,0,0,0-1.263,1.946v8.516c0,1.246-.666,1.707-1.877,1.468a1.058,1.058,0,0,1-.887-1.126V12.71a4.233,4.233,0,0,1,3.413-4.352,14.917,14.917,0,0,1,3.789-.427h2.3a.939.939,0,0,1,.922.768,1.2,1.2,0,0,1-.546,1.434Z" transform="translate(10.701 -5.406)"/><path class="a" d="M18.537,20.339a1.417,1.417,0,0,1-1.382.717,1.707,1.707,0,0,1-1.314-.512l-8.26-8q0-.051,0-.1a9.54,9.54,0,0,0,1.143-.768,4.284,4.284,0,0,0,.683-.939c.222-.393.256-.41.563-.1L16.66,17.2c.529.495,1.041,1.007,1.553,1.536A1.314,1.314,0,0,1,18.537,20.339Z" transform="translate(-12.661 -3.649)"/><path class="a" d="M11.147,12.341,9.9,13.536c-2.3,2.27-4.625,4.54-6.912,6.827a2.048,2.048,0,0,1-1.707.666A1.246,1.246,0,0,1,.31,19.015a9.558,9.558,0,0,1,1.075-1.126L8.5,10.7l.307-.273a4.079,4.079,0,0,0,2.338,1.911Z" transform="translate(-17.985 -3.639)"/><path class="a" d="M60.285,56.747a9.514,9.514,0,0,0-1.192,5.534,18.582,18.582,0,0,0,3.077,8.8,9.411,9.411,0,0,0,2.552,2.678c.238.166.489.288.775.465-.238,0-.441.066-.644.077-2.379.138-14.413-6.1-15.076-12.958-.728-8.31,3.188-11.27,3.319-11.436h0l-.358.133a13.2,13.2,0,0,0-5.259,4.206,19.468,19.468,0,0,0-3.458,7.526.647.647,0,0,1,0,.144c-.262-.354-.525-.653-.727-.985A10.912,10.912,0,0,1,41.909,57a15.711,15.711,0,0,1-.167-4.294c.267-6.248,5.012-11.555,11.579-12.949a20.648,20.648,0,0,1,5.342-.6,8.585,8.585,0,0,1,4.543,1.229,5.659,5.659,0,0,1,2.385,3.21,8.913,8.913,0,0,1,.322,3.8,11.77,11.77,0,0,1-.441,2.623c-.3.909-3.844,4.4-5.187,6.729Z" transform="translate(-86.238 -55.248)"/><path class="b" d="M59.369,37.725a5.022,5.022,0,0,1-7.059-.166,5.294,5.294,0,0,1-1.419-3.741,5.049,5.049,0,0,1,8.455-3.63A5.187,5.187,0,0,1,59.369,37.725Z" transform="translate(-84.463 -56.347)"/><g class="d" transform="matrix(1, 0, 0, 1, -53.73, -27.48)"><path class="c" d="M833.215,626.576s3.168-18.029,21.546-11.764c0,0,4.309-13.554-11.027-10.741S829.413,622.74,833.215,626.576Z" transform="translate(-821.83 -592.38)"/></g></g></svg>