<svg xmlns="http://www.w3.org/2000/svg" width="15" height="15" viewBox="0 0 15 15"><defs><style>.a{fill:#fbbd00;}.b{fill:#0f9d58;}.c{fill:#31aa52;}.d{fill:#3c79e6;}.e{fill:#cf2d48;}.f{fill:#eb4132;}</style></defs><path class="a" d="M3.516,104.779a3.96,3.96,0,0,1,.56-2.035v-2.529H1.548a7.5,7.5,0,0,0,0,9.128H4.076v-2.529A3.96,3.96,0,0,1,3.516,104.779Z" transform="translate(0 -97.279)"/><path class="b" d="M197.758,373.519,196,375.277l1.758,1.758a7.443,7.443,0,0,0,4.564-1.548v-2.526H199.8A3.984,3.984,0,0,1,197.758,373.519Z" transform="translate(-190.258 -362.034)"/><path class="c" d="M55.352,325.477l-2.529,2.529a7.621,7.621,0,0,0,.649.739,7.451,7.451,0,0,0,5.3,2.2v-3.516A3.986,3.986,0,0,1,55.352,325.477Z" transform="translate(-51.275 -315.941)"/><path class="d" d="M263.5,199.043a7.567,7.567,0,0,0-.123-1.359l-.066-.36H256v3.516h3.558a3.966,3.966,0,0,1-1.52,1.63L260.564,205a7.62,7.62,0,0,0,.739-.649A7.451,7.451,0,0,0,263.5,199.043Z" transform="translate(-248.5 -191.543)"/><path class="e" d="M200.575,4.683l.311.311,2.486-2.486-.311-.311a7.451,7.451,0,0,0-5.3-2.2L196,1.758l1.758,1.758A3.958,3.958,0,0,1,200.575,4.683Z" transform="translate(-190.258)"/><path class="f" d="M58.774,3.516V0a7.451,7.451,0,0,0-5.3,2.2,7.613,7.613,0,0,0-.649.739l2.529,2.529a3.986,3.986,0,0,1,3.424-1.949Z" transform="translate(-51.274 0)"/></svg>