<svg xmlns="http://www.w3.org/2000/svg" width="15" height="15" viewBox="0 0 15 15"><defs><style>.a{fill:#007ab9;}</style></defs><path class="a" d="M42.068,33.165v5.8H38.852V33.554c0-1.36-.464-2.288-1.629-2.288a1.769,1.769,0,0,0-1.649,1.23,2.4,2.4,0,0,0-.106.82v5.653H32.252s.043-9.172,0-10.121h3.216v1.434c-.006.011-.016.022-.021.033h.021v-.033a3.174,3.174,0,0,1,2.9-1.672c2.116,0,3.7,1.447,3.7,4.555Zm-13.18-9.2a1.75,1.75,0,1,0-.042,3.5h.021a1.75,1.75,0,1,0,.021-3.5Zm-1.629,15h3.215V28.848H27.259Z" transform="translate(-27.068 -23.969)"/></svg>