<svg xmlns="http://www.w3.org/2000/svg" xmlns:xlink="http://www.w3.org/1999/xlink" width="120" height="40" viewBox="0 0 120 40"><defs><style>.a{fill:#006fbc;}.b{fill:#f6911d;}.c{fill:url(#a);}.d{fill-rule:evenodd;fill:url(#b);}.e{filter:url(#c);}</style><linearGradient id="a" x1="1.913" y1="0.715" x2="1.273" y2="1.377" gradientUnits="objectBoundingBox"><stop offset="0" stop-color="#006fbc"/><stop offset="1" stop-color="#8cd7f7"/></linearGradient><linearGradient id="b" x1="0.5" y1="0" x2="0.5" y2="1" xlink:href="#a"/><filter id="c" x="0" y="3.048" width="37.595" height="36.312" filterUnits="userSpaceOnUse"><feOffset dy="3" input="SourceAlpha"/><feGaussianBlur stdDeviation="3" result="d"/><feFlood flood-opacity="0.161"/><feComposite operator="in" in2="d"/><feComposite in="SourceGraphic"/></filter></defs><g transform="translate(53.732 27.481)"><path class="a" d="M28.758,8.494A6.267,6.267,0,0,0,26.383,8H21.235a12.288,12.288,0,0,0-2.922.246,4.547,4.547,0,0,0-2.034.874A3.263,3.263,0,0,0,15.241,11.7V23.185a.737.737,0,0,0,.669.7,4.1,4.1,0,0,0,.819,0,.7.7,0,0,0,.655-.628,2.976,2.976,0,0,0,0-.6c0-.847,0-1.707,0-2.553,0-.4,0-.4.41-.4h7.291a11.114,11.114,0,0,0,2.99-.4A3.318,3.318,0,0,0,30.7,16.03V11.579a3.236,3.236,0,0,0-1.939-3.086ZM26.915,17.56a11.073,11.073,0,0,1-1.911.2H17.9c-.437,0-.437,0-.437-.451v-5.5a1.666,1.666,0,0,1,1.365-1.761,10.6,10.6,0,0,1,1.72-.218H25.8a5.966,5.966,0,0,1,1.679.369,1.516,1.516,0,0,1,1.092,1.57v3.823a1.775,1.775,0,0,1-1.652,1.966Z" transform="translate(-17.794 -11.383)"/><path class="a" d="M41.65,8.281A7.045,7.045,0,0,0,39.4,7.94H32.68a11.455,11.455,0,0,0-2.157.232,2.936,2.936,0,0,0-2.512,2.963v5.216a2.854,2.854,0,0,0,.942,2.185,4.465,4.465,0,0,0,2.8,1.065c1.529.1,3.072.1,4.6.123a2.5,2.5,0,0,0,.546-.068.778.778,0,0,0,.655-.915.751.751,0,0,0-.778-.819H34.045a16.384,16.384,0,0,1-2.321-.164,1.652,1.652,0,0,1-1.584-1.83V15.04c0-.287,0-.437.423-.437H42.674c.655,0,.887-.246.887-.887V10.985a2.635,2.635,0,0,0-1.911-2.7Zm-.614,4.683H30.618c-.3,0-.4-.1-.382-.382a6.035,6.035,0,0,0,0-.86,1.666,1.666,0,0,1,1.6-1.857,5.352,5.352,0,0,1,1.147-.1h6.035a5.612,5.612,0,0,1,1.556.3,1.365,1.365,0,0,1,.9,1.27c0,.423,0,.833,0,1.256s-.109.369-.382.369Z" transform="translate(-13.127 -11.403)"/><path class="a" d="M69.9,18.927a.765.765,0,0,1-.628.724,3.059,3.059,0,0,1-.7.1h-13.2a2.636,2.636,0,0,1-.573,0,.942.942,0,0,1-.6-1.529,5.735,5.735,0,0,1,1.147-1L65.065,10.3a1.188,1.188,0,0,0,.328-.355H55.74a3.878,3.878,0,0,1-.7-.068.819.819,0,0,1-.614-.915A.819.819,0,0,1,55.043,8a4.683,4.683,0,0,1,.765,0H68.315c.6,0,.928.218,1.051.628A1.2,1.2,0,0,1,68.9,9.916c-.71.532-1.365,1.038-2.157,1.556L58.1,17.562c-.068,0-.137.137-.2.2a.191.191,0,0,0,0,.082H68.615a3.291,3.291,0,0,1,.724.1C69.789,18.039,69.939,18.367,69.9,18.927Z" transform="translate(-3.637 -11.385)"/><path class="b" d="M28.915,0V.139a.573.573,0,0,1-.164.109c-1.488.573-3,1.051-4.451,1.707a35.5,35.5,0,0,0-3.809,2.062c-1.01.6-1.966,1.365-2.936,2.007A12.794,12.794,0,0,0,16.19,7.212c-.833.806-1.775,1.625-2.608,2.485a20,20,0,0,0-1.556,1.83c-.765,1.038-1.5,2.13-2.239,3.154a1.9,1.9,0,0,1-1.543.505A2.239,2.239,0,0,1,7,14.257c-.478-.532-.915-1.106-1.365-1.666l-1.57-1.83-.9-1.01c-.191-.2-.451-.4-.314-.724a.942.942,0,0,1,.874-.7,2.335,2.335,0,0,1,1.01.191A8.984,8.984,0,0,1,7.7,10.816c.15.164.273.369.423.519a.262.262,0,0,0,.423,0c.4-.56.792-1.133,1.229-1.652a16.48,16.48,0,0,1,1.638-1.734c.751-.669,1.57-1.256,2.362-1.871a20.1,20.1,0,0,1,3.673-2.226c1.242-.614,2.526-1.174,3.809-1.707a26.091,26.091,0,0,1,2.621-1C25,.808,26.157.549,27.29.262L28.573,0a1.461,1.461,0,0,1,.341,0Z" transform="translate(-22.333 -14.306)"/><path class="a" d="M56.174,9.725a.792.792,0,0,1-.71.928,2.731,2.731,0,0,1-.464,0H51.723c-.3,0-.41.082-.41.4v8.479c0,.41,0,.819-.464,1a1.516,1.516,0,0,1-1.365-.082.765.765,0,0,1-.341-.683v-8.4c0-.778.109-.7-.7-.71a4.014,4.014,0,0,1-.7-.068c-.41-.1-.573-.382-.56-.915s.232-.737.628-.792a4.777,4.777,0,0,1,.887,0c.287,0,.437,0,.437-.437V6.694c0-.833.382-1.147,1.242-1.092s.969.341.983,1.051V8.414c0,.464,0,.464.451.464H55.41a.765.765,0,0,1,.765.847Z" transform="translate(-6.119 -12.259)"/><path class="a" d="M48.546,9.692a1.911,1.911,0,0,1-.683.15H45.474a6.909,6.909,0,0,0-1.611.41,1.516,1.516,0,0,0-1.01,1.557v6.813c0,1-.532,1.365-1.5,1.174a.847.847,0,0,1-.71-.9V11.753a3.386,3.386,0,0,1,2.731-3.482A11.933,11.933,0,0,1,46.4,7.93h1.843a.751.751,0,0,1,.737.614.956.956,0,0,1-.437,1.147Z" transform="translate(-8.513 -11.407)"/><path class="a" d="M16.346,18.354a1.133,1.133,0,0,1-1.106.573,1.365,1.365,0,0,1-1.051-.41l-6.608-6.4q0-.041,0-.082a7.632,7.632,0,0,0,.915-.614,3.427,3.427,0,0,0,.546-.751c.177-.314.2-.328.451-.082l5.352,5.257c.423.4.833.806,1.242,1.229A1.051,1.051,0,0,1,16.346,18.354Z" transform="translate(-20.591 -10.499)"/><path class="a" d="M8.927,11.959l-1,.956c-1.843,1.816-3.7,3.632-5.53,5.461a1.638,1.638,0,0,1-1.365.532A1,1,0,0,1,.257,17.3a7.646,7.646,0,0,1,.86-.9L6.81,10.648l.246-.218a3.263,3.263,0,0,0,1.871,1.529Z" transform="translate(-23.344 -10.493)"/><path class="c" d="M56.561,53.229a7.611,7.611,0,0,0-.954,4.427A14.866,14.866,0,0,0,58.069,64.7a7.528,7.528,0,0,0,2.041,2.143c.191.133.391.23.62.372-.191,0-.353.053-.515.062-1.9.11-11.53-4.883-12.061-10.366-.583-6.648,2.55-9.016,2.655-9.149h0l-.286.106a10.558,10.558,0,0,0-4.207,3.365,15.574,15.574,0,0,0-2.766,6.021.518.518,0,0,1,0,.115c-.21-.283-.42-.522-.582-.788a8.73,8.73,0,0,1-1.107-3.143A12.569,12.569,0,0,1,41.727,50,11.33,11.33,0,0,1,50.99,39.638a16.518,16.518,0,0,1,4.274-.478,6.868,6.868,0,0,1,3.635.983,4.527,4.527,0,0,1,1.908,2.568,7.13,7.13,0,0,1,.258,3.037,9.416,9.416,0,0,1-.353,2.1c-.243.727-3.075,3.52-4.15,5.383Z" transform="translate(-86.27 -57.526)"/><path class="b" d="M57.673,35.953a4.018,4.018,0,0,1-5.647-.133,4.235,4.235,0,0,1-1.135-2.993,4.039,4.039,0,0,1,6.764-2.9A4.15,4.15,0,0,1,57.673,35.953Z" transform="translate(-86.695 -56.347)"/><g class="e" transform="matrix(1, 0, 0, 1, -53.73, -27.48)"><path class="d" d="M832.737,622s2.535-14.424,17.237-9.411c0,0,3.448-10.844-8.821-8.593S829.7,618.929,832.737,622Z" transform="translate(-821.83 -594.64)"/></g></g></svg>