<svg xmlns="http://www.w3.org/2000/svg" width="23.156" height="23.152" viewBox="0 0 23.156 23.152"><defs><style>.a{fill:none;stroke:#707070;}</style></defs><path class="a" d="M22.065,8.852a1.185,1.185,0,0,0-1.012-.844L14.668,7.4,12.143,1.237a1.157,1.157,0,0,0-2.163,0L7.455,7.4l-6.386.605a1.187,1.187,0,0,0-1.011.844,1.26,1.26,0,0,0,.344,1.3l4.826,4.417L3.805,21.114a1.254,1.254,0,0,0,.457,1.267,1.128,1.128,0,0,0,1.291.059L11.062,19l5.506,3.435a1.131,1.131,0,0,0,1.292-.059,1.255,1.255,0,0,0,.457-1.267l-1.423-6.542,4.826-4.416A1.262,1.262,0,0,0,22.065,8.852Zm0,0" transform="translate(0.517 0.008)"/></svg>