<?xml version="1.0" encoding="utf-8"?>
<!-- Generator: Adobe Illustrator 16.0.0, SVG Export Plug-In . SVG Version: 6.00 Build 0)  -->
<!DOCTYPE svg PUBLIC "-//W3C//DTD SVG 1.1//EN" "http://www.w3.org/Graphics/SVG/1.1/DTD/svg11.dtd">
<svg version="1.1" id="Layer_1" xmlns="http://www.w3.org/2000/svg" xmlns:xlink="http://www.w3.org/1999/xlink" x="0px" y="0px"
	 width="100px" height="100px" viewBox="0 0 100 100" enable-background="new 0 0 100 100" xml:space="preserve">
<g>
	<path fill="#F2F2F2" stroke="#FFFFFF" stroke-width="2" stroke-miterlimit="10" d="M62.718,44.32v0.017
		c-0.007,0-0.016,0.009-0.031,0.014L62.718,44.32z"/>
	<path fill="#F2F2F2" stroke="#FFFFFF" stroke-width="2" stroke-miterlimit="10" d="M62.718,44.32v0.017
		c-0.007,0-0.016,0.009-0.031,0.014L62.718,44.32z"/>
	<path fill="#F2F2F2" stroke="#FFFFFF" stroke-width="2" stroke-miterlimit="10" d="M43.168,11.17v24.376l-13.413,14.42l-9.36-9.712
		l-0.58-0.594c-0.656-0.811-1.046-1.875-1.046-3.115c0-1.164,0.368-2.241,1.023-3.083c0.009-0.009,0.018-0.018,0.018-0.024
		l0.622-0.642c0.008-0.008,0.008-0.014,0.016-0.014l18.512-19.2l1.569-1.631l0.008-0.009C41.293,11.451,42.199,11.17,43.168,11.17z"
		/>
	<path fill="#F2F2F2" stroke="#FFFFFF" stroke-width="2" stroke-miterlimit="10" d="M62.75,31.118v0.102
		c0,0.258-0.023,0.509-0.063,0.749L62.673,44.32l-0.031,0.031c-0.009,0-0.016,0.016-0.024,0.024
		c-0.353,0.256-0.664,0.57-0.922,0.922L46.08,60.912c-0.82,0.633-1.85,1.007-2.959,1.007V11.17c1.109,0,2.139,0.375,2.959,1.007
		l0.922,0.921c0-0.007-0.009-0.023-0.023-0.03l13.834,13.804c0.018,0.014,0.039,0.031,0.056,0.054
		c0.005,0.008,0.022,0.025,0.04,0.04l0.539,0.539c0.03,0.024,0.055,0.054,0.077,0.078l0.108,0.108c0,0,0,0.009,0.009,0.009
		c0.561,0.742,0.92,1.64,1.045,2.631C62.727,30.587,62.75,30.852,62.75,31.118z"/>
	<path fill="#F2F2F2" stroke="#FFFFFF" stroke-width="2" stroke-miterlimit="10" d="M70.497,48.255v12.196
		c0,1.484-0.486,2.828-1.407,3.795c-0.117,0.126-0.241,0.242-0.367,0.352l-6.036,5.824l-6.496,6.264l-6.87,6.627l-1.569,1.514
		c-1.108,0.805-2.437,1.328-3.872,1.462c-0.235,0.022-0.467,0.031-0.711,0.031c-1.723,0-3.318-0.563-4.607-1.507l-1.52-1.469
		L19.034,66.002l-0.007-0.007l-1.289-1.233l-0.007-0.007c-0.267-0.368-0.476-0.767-0.625-1.194c-0.188-0.516-0.29-1.063-0.29-1.642
		c0,0,0-19.518,0-20.494c0-3.146,1.931-6.395,2.678-7.535c-0.467,0.765-0.726,1.679-0.726,2.655c0,1.24,0.39,2.305,1.046,3.115
		c0.172,0.217,0.367,0.421,0.58,0.594l9.36,9.712l9.204,9.542l1.569,1.633l0.008,0.005c0.757,0.493,1.663,0.773,2.632,0.773
		c1.109,0,2.14-0.374,2.96-1.007c0.351-0.258,0.664-0.569,0.922-0.922l15.615-15.615c0.008-0.008,0.013-0.024,0.021-0.024
		c0.016-0.005,0.024-0.014,0.031-0.014c0.813-0.61,1.811-0.962,2.897-0.962C68.309,43.375,70.497,45.563,70.497,48.255z"/>
	<path fill="#F2F2F2" stroke="#FFFFFF" stroke-width="2" stroke-miterlimit="10" d="M83.184,75.582c0,1.063-0.344,2.055-0.928,2.859
		l-1.089,1.084l-7.743,7.762l-0.009,0.008l-0.944,0.951c-0.82,0.633-1.843,1-2.952,1h-19.52c-1.725,0-3.317-0.563-4.604-1.508
		c-0.126-0.092-0.252-0.186-0.368-0.287c-0.421-0.344-0.805-0.734-1.147-1.163c1.436-0.134,2.764-0.657,3.872-1.462
		c0.593-0.429,1.124-0.936,1.569-1.514l6.87-6.627l6.496-6.264v0.281h15.617C80.996,70.703,83.184,72.887,83.184,75.582z"/>
</g>
</svg>
